<?xml version="1.0" encoding="UTF-8" standalone="no"?>
<!-- Created with Inkscape (http://www.inkscape.org/) -->
<svg
   xmlns:dc="http://purl.org/dc/elements/1.1/"
   xmlns:cc="http://creativecommons.org/ns#"
   xmlns:rdf="http://www.w3.org/1999/02/22-rdf-syntax-ns#"
   xmlns:svg="http://www.w3.org/2000/svg"
   xmlns="http://www.w3.org/2000/svg"
   xmlns:sodipodi="http://sodipodi.sourceforge.net/DTD/sodipodi-0.dtd"
   xmlns:inkscape="http://www.inkscape.org/namespaces/inkscape"
   version="1.0"
   x="0.0000000"
   y="0.0000000"
   width="152.50595"
   height="152.51082"
   id="svg689"
   sodipodi:version="0.32"
   inkscape:version="0.46"
   sodipodi:docname="detroit_2.svg"
   inkscape:output_extension="org.inkscape.output.svg.inkscape">
  <sodipodi:namedview
     inkscape:window-height="670"
     inkscape:window-width="640"
     inkscape:pageshadow="2"
     inkscape:pageopacity="0.0"
     guidetolerance="10.0"
     gridtolerance="10.0"
     objecttolerance="10.0"
     borderopacity="1.0"
     bordercolor="#666666"
     pagecolor="#ffffff"
     id="base"
     showgrid="false"
     inkscape:zoom="0.43901235"
     inkscape:cx="372.04724"
     inkscape:cy="526.18109"
     inkscape:window-x="624"
     inkscape:window-y="64"
     inkscape:current-layer="svg689" />
  <defs
     id="defs691">
    <inkscape:perspective
       sodipodi:type="inkscape:persp3d"
       inkscape:vp_x="0 : 526.18109 : 1"
       inkscape:vp_y="0 : 1000 : 0"
       inkscape:vp_z="744.09448 : 526.18109 : 1"
       inkscape:persp3d-origin="372.04724 : 350.78739 : 1"
       id="perspective10" />
  </defs>
  <g
     id="g1277"
     transform="translate(-138.96707,-203.70579)">
    <path
       d="M 139.67343,204.33951 L 139.67343,355.55954 L 290.83931,355.55954 L 290.83931,204.33951 L 139.67343,204.33951 z M 232.97411,279.96579 C 232.97411,289.76723 225.01932,297.72202 215.21788,297.72202 C 205.41645,297.72202 197.46165,289.76723 197.46165,279.96579 C 197.46165,270.16435 205.41645,262.20956 215.21788,262.20956 C 225.01932,262.20956 232.97411,270.16435 232.97411,279.96579 z M 244.45446,279.96576 C 244.45446,296.10434 231.35648,309.20232 215.21789,309.20232 C 199.07931,309.20232 185.98133,296.10434 185.98133,279.96576 C 185.98133,263.82717 199.07931,250.7292 215.21789,250.7292 C 231.35648,250.7292 244.45446,263.82717 244.45446,279.96576 z M 263.74141,279.9657 C 263.74141,306.75068 242.00287,328.48921 215.2179,328.48921 C 188.43292,328.48921 166.69439,306.75068 166.69439,279.9657 C 166.69439,253.18072 188.43292,231.44219 215.2179,231.44219 C 242.00287,231.44219 263.74141,253.18072 263.74141,279.9657 z M 290.83502,279.96581 C 290.83502,321.70644 256.95855,355.5829 215.2179,355.5829 C 173.47726,355.5829 139.60079,321.70644 139.60079,279.96581 C 139.60079,238.22517 173.47726,204.34871 215.2179,204.34871 C 256.95855,204.34871 290.83502,238.22517 290.83502,279.96581 z M 281.4176,280.845 C 281.4176,317.64922 251.5475,347.51932 214.74328,347.51932 C 177.93906,347.51932 148.06897,317.64922 148.06897,280.845 C 148.06897,244.04078 177.93906,214.17068 214.74328,214.17068 C 251.5475,214.17068 281.4176,244.04078 281.4176,280.845 z"
       style="fill-rule:evenodd;stroke:#000000;stroke-width:1.01394663pt"
       id="path1276" />
    <path
       d="M 259.90625,233.53125 C 254.74777,233.13476 242.62421,241.09902 230.6875,253.0625 C 217.04554,266.73505 208.79321,280.46941 212.25,283.75 C 215.70679,287.0306 229.57679,278.61006 243.21875,264.9375 C 256.86071,251.26495 265.11303,237.49936 261.65625,234.21875 C 261.22415,233.80867 260.64318,233.58789 259.90625,233.53125 z M 244.6875,249.0625 C 245.47962,249.03105 246.12714,249.21935 246.59375,249.65625 C 248.46018,251.40385 246.53929,256.46505 242.3125,260.9375 C 238.08572,265.40995 233.14768,267.62261 231.28125,265.875 C 229.41483,264.12739 231.33571,259.0662 235.5625,254.59375 C 238.73259,251.23942 242.31113,249.15685 244.6875,249.0625 z"
       style="fill-rule:evenodd;stroke-width:1pt"
       id="path1269" />
  </g>
  <metadata
     id="metadata7">
    <rdf:RDF>
      <cc:Work
         rdf:about="">
        <dc:title>detroit 2</dc:title>
        <dc:date>2004</dc:date>
        <dc:description>graphic art abstract colour nuclear svg eps pdf</dc:description>
        <dc:creator>
          <cc:Agent>
            <dc:title>Rhea Myers</dc:title>
          </cc:Agent>
        </dc:creator>
        <dc:rights>
          <cc:Agent>
            <dc:title>Rhea Myers</dc:title>
          </cc:Agent>
        </dc:rights>
        <dc:type
           rdf:resource="http://purl.org/dc/dcmitype/StillImage" />
        <dc:source
           rdf:resource="http://www.Rhea Myers.org/art/1968" />
        <cc:license
           rdf:resource="http://creativecommons.org/licenses/by-sa/2.0/" />
        <dc:format>image/svg+xml</dc:format>
      </cc:Work>
      <cc:License
         rdf:about="http://creativecommons.org/licenses/by-sa/2.0/">
        <cc:permits
           rdf:resource="http://web.resource.org/cc/Reproduction" />
        <cc:permits
           rdf:resource="http://web.resource.org/cc/Distribution" />
        <cc:requires
           rdf:resource="http://web.resource.org/cc/Notice" />
        <cc:requires
           rdf:resource="http://web.resource.org/cc/Attribution" />
        <cc:permits
           rdf:resource="http://web.resource.org/cc/DerivativeWorks" />
        <cc:requires
           rdf:resource="http://web.resource.org/cc/ShareAlike" />
      </cc:License>
    </rdf:RDF>
  </metadata>
</svg>
