<?xml version="1.0" encoding="UTF-8" standalone="no"?>
<!DOCTYPE svg PUBLIC "-//W3C//DTD SVG 1.0//EN"
"http://www.w3.org/TR/2001/REC-SVG-20010904/DTD/svg10.dtd">
<!-- Created with Inkscape (http://www.inkscape.org/) -->
<svg
   xmlns="http://www.w3.org/2000/svg"
   xmlns:xlink="http://www.w3.org/1999/xlink"
   version="1.0"
   x="0.0000000"
   y="0.0000000"
   width="1482.9890"
   height="747.70398"
   viewBox="0 0 1482.989 747.704"
   id="svg2442"
   xml:space="preserve">
  <defs
     id="defs2522" />
  <g
     id="g2446">
    <path
       d="M 324.22300,357.47700 C 335.55100,366.74300 164.76400,593.39300 85.503000,681.10800 C 42.916000,728.78600 16.874000,756.53200 2.8730000,745.08000 C -7.8680000,736.29400 12.762000,704.82700 51.050000,653.63200 C 88.158000,602.03500 312.34900,347.76500 324.22300,357.47700 z "
       style="fill:#f550a6;stroke:#f11c79;stroke-width:0.10000000;"
       id="path2448" />
    <path
       d="M 215.53500,487.12300 C 224.18900,494.20300 163.66000,578.08100 108.43900,645.59000 C 53.218000,713.10000 15.452000,752.21600 5.4130000,744.00400 C -4.6270000,735.79200 26.136000,691.12800 81.357000,623.61800 C 136.57800,556.10900 206.87900,480.04400 215.53500,487.12300 z "
       style="fill:#f981a2;stroke:#f11c79;stroke-width:0.10000000;"
       id="path2450" />
    <path
       d="M 128.50800,594.76500 C 113.98000,594.83500 64.842000,651.32000 50.936000,666.55200 C 37.031000,681.78400 -1.3450000,734.47400 7.1080000,741.38800 C 15.558000,748.30100 59.577000,700.26400 71.750000,683.61500 C 83.923000,666.96600 143.03500,594.69300 128.50800,594.76500 z "
       style="fill:#fcc0a7;"
       id="path2452" />
  </g>
  <path
     d="M 919.70200,440.23900 L 415.17600,440.23900 L 415.17600,394.09100 L 919.70200,394.09100 L 919.70200,440.23900 z "
     style="fill:none;stroke:#000000;"
     id="path2504" />
  <path
     d="M 549.97300,377.08100 L 549.97300,454.73400"
     style="fill:none;stroke:#000000;"
     id="path2506" />
  <path
     style="fill:none;stroke:#000000;"
     id="path2508" />
  <path
     d="M 404.97100,419.05300 L 928.13400,419.05300"
     style="fill:none;stroke:#000000;"
     id="path2510" />
  <path
     d="M 918.05800,24.329000 C 916.17000,7.7980000 616.02800,1.2500000 601.44700,1.2500000 C 586.86500,1.2500000 413.97500,-5.9580000 413.97500,24.330000 C 413.97500,54.618000 586.86500,47.410000 601.44700,47.410000 C 616.02800,47.409000 916.17000,40.860000 918.05800,24.329000 z "
     style="fill:none;stroke:#000000;"
     id="path2512" />
  <path
     d="M 750.62600,435.15400 L 418.80300,435.15400 L 418.80300,399.86100 L 750.62600,399.86100 L 750.62600,435.15400 z "
     style="fill:none;stroke:#000000;"
     id="path2514" />
  <path
     d="M 748.91900,24.560000 C 748.91900,41.145000 578.06500,42.980000 547.96600,42.980000 C 500.99200,42.980000 416.77200,40.233000 416.77200,24.560000 C 416.77200,8.8870000 500.99200,6.1400000 547.96600,6.1400000 C 578.06500,6.1400000 748.91900,7.9750000 748.91900,24.560000 z "
     style="fill:none;stroke:#000000;"
     id="path2516" />
  <path
     d="M 400.21000,59.744000 C 400.21000,66.863000 439.85700,72.736000 486.83100,72.736000 C 516.93100,72.736000 584.51600,69.697000 584.51600,59.744000"
     style="fill:none;stroke:#000000;"
     id="path2518" />
<metadata>
<rdf:RDF xmlns="http://web.resource.org/cc/"
xmlns:dc="http://purl.org/dc/elements/1.1/"
xmlns:rdf="http://www.w3.org/1999/02/22-rdf-syntax-ns#">
<Work rdf:about="">
<dc:title>1968</dc:title>
<dc:date>2004</dc:date>
<dc:description>graphic art abstract colour nuclear svg eps pdf</dc:description>
<dc:creator><Agent>
<dc:title>Rhea Myers</dc:title>
</Agent></dc:creator>
<dc:rights><Agent>
<dc:title>Rhea Myers</dc:title>
</Agent></dc:rights>
<dc:type rdf:resource="http://purl.org/dc/dcmitype/StillImage" />
<dc:source rdf:resource="http://www.Rhea Myers.org/art/1968"/>
<license rdf:resource="http://creativecommons.org/licenses/by-sa/2.0/" />
</Work>
<License rdf:about="http://creativecommons.org/licenses/by-sa/2.0/">
<permits rdf:resource="http://web.resource.org/cc/Reproduction" />
<permits rdf:resource="http://web.resource.org/cc/Distribution" />
<requires rdf:resource="http://web.resource.org/cc/Notice" />
<requires rdf:resource="http://web.resource.org/cc/Attribution" />
<permits rdf:resource="http://web.resource.org/cc/DerivativeWorks" />
<requires rdf:resource="http://web.resource.org/cc/ShareAlike" />
</License>
</rdf:RDF>
</metadata>
</svg>


