<?xml version="1.0" encoding="UTF-8" standalone="no"?>
<!DOCTYPE svg PUBLIC "-//W3C//DTD SVG 1.0//EN"
"http://www.w3.org/TR/2001/REC-SVG-20010904/DTD/svg10.dtd">
<!-- Created with Inkscape (http://www.inkscape.org/) -->
<svg
   xmlns="http://www.w3.org/2000/svg"
   xmlns:xlink="http://www.w3.org/1999/xlink"
   version="1.0"
   x="0.0000000"
   y="0.0000000"
   width="744.09448"
   height="1052.3622"
   id="svg573">
  <defs
     id="defs575" />
  <rect
     width="319.41754"
     height="429.88632"
     x="37.679306"
     y="162.61722"
     style="font-size:12.000000;fill:#0000ff;fill-opacity:0.75000000;fill-rule:evenodd;stroke-width:3.0000000pt;"
     id="rect683" />
  <path
     style="fill:#ff0000;fill-opacity:0.75000000;fill-rule:evenodd;stroke-width:3.0000000pt;"
     id="path621" />
  <g
     transform="translate(-171.9613,168.2913)"
     id="g632">
    <path
       d="M 234.34975,168.96326 C 234.34975,133.63845 205.71333,105.00204 170.38852,105.00204 C 135.06371,105.00204 106.42729,133.63845 106.42729,168.96326 C 106.42729,204.28807 135.06371,232.92448 170.38852,232.92448 C 205.71333,232.92448 234.34975,204.28807 234.34975,168.96326 L 234.34975,168.96326 z "
       transform="matrix(1.020492,0.000000,0.000000,1.020492,183.4115,-45.66631)"
       style="fill:#beff00;fill-opacity:0.49999997;fill-rule:evenodd;stroke-width:3.0000000pt;"
       id="path633" />
    <path
       d="M 205.51471,168.17682 C 205.52161,146.60065 188.03261,129.10605 166.45645,129.10605 C 144.88029,129.10605 127.39129,146.60065 127.39819,168.17682 C 127.39129,189.75299 144.88029,207.24759 166.45645,207.24759 C 188.03261,207.24759 205.52161,189.75299 205.51471,168.17682 z "
       transform="matrix(1.040269,0.000000,0.000000,1.040268,184.1321,-48.18965)"
       style="fill:#92ff00;fill-opacity:0.49999997;fill-rule:evenodd;stroke-width:3.0000000pt;"
       id="path634" />
    <path
       d="M 193.45650,167.65253 C 193.46332,153.60465 182.07718,142.21297 168.02930,142.21297 C 153.98141,142.21297 142.59527,153.60465 142.60209,167.65253 C 142.59527,181.70041 153.98141,193.09209 168.02930,193.09209 C 182.07718,193.09209 193.46332,181.70041 193.45650,167.65253 L 193.45650,167.65253 z "
       transform="matrix(0.969071,0.000000,0.000000,0.969072,194.4593,-35.70804)"
       style="fill:#3aff00;fill-opacity:0.49999997;fill-rule:evenodd;stroke-width:3.0000000pt;"
       id="path635" />
    <path
       d="M 177.72828,166.34186 C 177.72828,158.23454 171.15600,151.66226 163.04868,151.66226 C 154.94135,151.66226 148.36907,158.23454 148.36907,166.34186 C 148.36907,174.44918 154.94135,181.02147 163.04868,181.02147 C 171.15600,181.02147 177.72828,174.44918 177.72828,166.34186 L 177.72828,166.34186 z "
       transform="matrix(0.964290,0.000000,0.000000,0.964290,200.0654,-33.64253)"
       style="fill:#00ff00;fill-opacity:0.49999997;fill-rule:evenodd;stroke-width:3.0000000pt;"
       id="path636" />
  </g>
  <g
     transform="translate(-122.6798,168.2913)"
     id="g637">
    <path
       d="M 234.34975,168.96326 C 234.34975,133.63845 205.71333,105.00204 170.38852,105.00204 C 135.06371,105.00204 106.42729,133.63845 106.42729,168.96326 C 106.42729,204.28807 135.06371,232.92448 170.38852,232.92448 C 205.71333,232.92448 234.34975,204.28807 234.34975,168.96326 L 234.34975,168.96326 z "
       transform="matrix(1.020492,0.000000,0.000000,1.020492,183.4115,-45.66631)"
       style="fill:#beff00;fill-opacity:0.49999997;fill-rule:evenodd;stroke-width:3.0000000pt;"
       id="path638" />
    <path
       d="M 205.51471,168.17682 C 205.52161,146.60065 188.03261,129.10605 166.45645,129.10605 C 144.88029,129.10605 127.39129,146.60065 127.39819,168.17682 C 127.39129,189.75299 144.88029,207.24759 166.45645,207.24759 C 188.03261,207.24759 205.52161,189.75299 205.51471,168.17682 z "
       transform="matrix(1.040269,0.000000,0.000000,1.040268,184.1321,-48.18965)"
       style="fill:#92ff00;fill-opacity:0.49999997;fill-rule:evenodd;stroke-width:3.0000000pt;"
       id="path639" />
    <path
       d="M 193.45650,167.65253 C 193.46332,153.60465 182.07718,142.21297 168.02930,142.21297 C 153.98141,142.21297 142.59527,153.60465 142.60209,167.65253 C 142.59527,181.70041 153.98141,193.09209 168.02930,193.09209 C 182.07718,193.09209 193.46332,181.70041 193.45650,167.65253 L 193.45650,167.65253 z "
       transform="matrix(0.969071,0.000000,0.000000,0.969072,194.4593,-35.70804)"
       style="fill:#3aff00;fill-opacity:0.49999997;fill-rule:evenodd;stroke-width:3.0000000pt;"
       id="path640" />
    <path
       d="M 177.72828,166.34186 C 177.72828,158.23454 171.15600,151.66226 163.04868,151.66226 C 154.94135,151.66226 148.36907,158.23454 148.36907,166.34186 C 148.36907,174.44918 154.94135,181.02147 163.04868,181.02147 C 171.15600,181.02147 177.72828,174.44918 177.72828,166.34186 L 177.72828,166.34186 z "
       transform="matrix(0.964290,0.000000,0.000000,0.964290,200.0654,-33.64253)"
       style="fill:#00ff00;fill-opacity:0.49999997;fill-rule:evenodd;stroke-width:3.0000000pt;"
       id="path641" />
  </g>
  <g
     transform="translate(-197.6507,210.7574)"
     id="g642">
    <path
       d="M 234.34975,168.96326 C 234.34975,133.63845 205.71333,105.00204 170.38852,105.00204 C 135.06371,105.00204 106.42729,133.63845 106.42729,168.96326 C 106.42729,204.28807 135.06371,232.92448 170.38852,232.92448 C 205.71333,232.92448 234.34975,204.28807 234.34975,168.96326 L 234.34975,168.96326 z "
       transform="matrix(1.020492,0.000000,0.000000,1.020492,183.4115,-45.66631)"
       style="fill:#beff00;fill-opacity:0.49999997;fill-rule:evenodd;stroke-width:3.0000000pt;"
       id="path643" />
    <path
       d="M 205.51471,168.17682 C 205.52161,146.60065 188.03261,129.10605 166.45645,129.10605 C 144.88029,129.10605 127.39129,146.60065 127.39819,168.17682 C 127.39129,189.75299 144.88029,207.24759 166.45645,207.24759 C 188.03261,207.24759 205.52161,189.75299 205.51471,168.17682 z "
       transform="matrix(1.040269,0.000000,0.000000,1.040268,184.1321,-48.18965)"
       style="fill:#92ff00;fill-opacity:0.49999997;fill-rule:evenodd;stroke-width:3.0000000pt;"
       id="path644" />
    <path
       d="M 193.45650,167.65253 C 193.46332,153.60465 182.07718,142.21297 168.02930,142.21297 C 153.98141,142.21297 142.59527,153.60465 142.60209,167.65253 C 142.59527,181.70041 153.98141,193.09209 168.02930,193.09209 C 182.07718,193.09209 193.46332,181.70041 193.45650,167.65253 L 193.45650,167.65253 z "
       transform="matrix(0.969071,0.000000,0.000000,0.969072,194.4593,-35.70804)"
       style="fill:#3aff00;fill-opacity:0.49999997;fill-rule:evenodd;stroke-width:3.0000000pt;"
       id="path645" />
    <path
       d="M 177.72828,166.34186 C 177.72828,158.23454 171.15600,151.66226 163.04868,151.66226 C 154.94135,151.66226 148.36907,158.23454 148.36907,166.34186 C 148.36907,174.44918 154.94135,181.02147 163.04868,181.02147 C 171.15600,181.02147 177.72828,174.44918 177.72828,166.34186 L 177.72828,166.34186 z "
       transform="matrix(0.964290,0.000000,0.000000,0.964290,200.0654,-33.64253)"
       style="fill:#00ff00;fill-opacity:0.49999997;fill-rule:evenodd;stroke-width:3.0000000pt;"
       id="path646" />
  </g>
  <g
     transform="translate(-148.3691,210.7574)"
     id="g647">
    <path
       d="M 234.34975,168.96326 C 234.34975,133.63845 205.71333,105.00204 170.38852,105.00204 C 135.06371,105.00204 106.42729,133.63845 106.42729,168.96326 C 106.42729,204.28807 135.06371,232.92448 170.38852,232.92448 C 205.71333,232.92448 234.34975,204.28807 234.34975,168.96326 L 234.34975,168.96326 z "
       transform="matrix(1.020492,0.000000,0.000000,1.020492,183.4115,-45.66631)"
       style="fill:#beff00;fill-opacity:0.49999997;fill-rule:evenodd;stroke-width:3.0000000pt;"
       id="path648" />
    <path
       d="M 205.51471,168.17682 C 205.52161,146.60065 188.03261,129.10605 166.45645,129.10605 C 144.88029,129.10605 127.39129,146.60065 127.39819,168.17682 C 127.39129,189.75299 144.88029,207.24759 166.45645,207.24759 C 188.03261,207.24759 205.52161,189.75299 205.51471,168.17682 z "
       transform="matrix(1.040269,0.000000,0.000000,1.040268,184.1321,-48.18965)"
       style="fill:#92ff00;fill-opacity:0.49999997;fill-rule:evenodd;stroke-width:3.0000000pt;"
       id="path649" />
    <path
       d="M 193.45650,167.65253 C 193.46332,153.60465 182.07718,142.21297 168.02930,142.21297 C 153.98141,142.21297 142.59527,153.60465 142.60209,167.65253 C 142.59527,181.70041 153.98141,193.09209 168.02930,193.09209 C 182.07718,193.09209 193.46332,181.70041 193.45650,167.65253 L 193.45650,167.65253 z "
       transform="matrix(0.969071,0.000000,0.000000,0.969072,194.4593,-35.70804)"
       style="fill:#3aff00;fill-opacity:0.49999997;fill-rule:evenodd;stroke-width:3.0000000pt;"
       id="path650" />
    <path
       d="M 177.72828,166.34186 C 177.72828,158.23454 171.15600,151.66226 163.04868,151.66226 C 154.94135,151.66226 148.36907,158.23454 148.36907,166.34186 C 148.36907,174.44918 154.94135,181.02147 163.04868,181.02147 C 171.15600,181.02147 177.72828,174.44918 177.72828,166.34186 L 177.72828,166.34186 z "
       transform="matrix(0.964290,0.000000,0.000000,0.964290,200.0654,-33.64253)"
       style="fill:#00ff00;fill-opacity:0.49999997;fill-rule:evenodd;stroke-width:3.0000000pt;"
       id="path651" />
  </g>
  <g
     transform="translate(-99.08749,210.7574)"
     id="g652">
    <path
       d="M 234.34975,168.96326 C 234.34975,133.63845 205.71333,105.00204 170.38852,105.00204 C 135.06371,105.00204 106.42729,133.63845 106.42729,168.96326 C 106.42729,204.28807 135.06371,232.92448 170.38852,232.92448 C 205.71333,232.92448 234.34975,204.28807 234.34975,168.96326 L 234.34975,168.96326 z "
       transform="matrix(1.020492,0.000000,0.000000,1.020492,183.4115,-45.66631)"
       style="fill:#beff00;fill-opacity:0.49999997;fill-rule:evenodd;stroke-width:3.0000000pt;"
       id="path653" />
    <path
       d="M 205.51471,168.17682 C 205.52161,146.60065 188.03261,129.10605 166.45645,129.10605 C 144.88029,129.10605 127.39129,146.60065 127.39819,168.17682 C 127.39129,189.75299 144.88029,207.24759 166.45645,207.24759 C 188.03261,207.24759 205.52161,189.75299 205.51471,168.17682 z "
       transform="matrix(1.040269,0.000000,0.000000,1.040268,184.1321,-48.18965)"
       style="fill:#92ff00;fill-opacity:0.49999997;fill-rule:evenodd;stroke-width:3.0000000pt;"
       id="path654" />
    <path
       d="M 193.45650,167.65253 C 193.46332,153.60465 182.07718,142.21297 168.02930,142.21297 C 153.98141,142.21297 142.59527,153.60465 142.60209,167.65253 C 142.59527,181.70041 153.98141,193.09209 168.02930,193.09209 C 182.07718,193.09209 193.46332,181.70041 193.45650,167.65253 L 193.45650,167.65253 z "
       transform="matrix(0.969071,0.000000,0.000000,0.969072,194.4593,-35.70804)"
       style="fill:#3aff00;fill-opacity:0.49999997;fill-rule:evenodd;stroke-width:3.0000000pt;"
       id="path655" />
    <path
       d="M 177.72828,166.34186 C 177.72828,158.23454 171.15600,151.66226 163.04868,151.66226 C 154.94135,151.66226 148.36907,158.23454 148.36907,166.34186 C 148.36907,174.44918 154.94135,181.02147 163.04868,181.02147 C 171.15600,181.02147 177.72828,174.44918 177.72828,166.34186 L 177.72828,166.34186 z "
       transform="matrix(0.964290,0.000000,0.000000,0.964290,200.0654,-33.64253)"
       style="fill:#00ff00;fill-opacity:0.49999997;fill-rule:evenodd;stroke-width:3.0000000pt;"
       id="path656" />
  </g>
  <path
     transform="translate(1.572819,86.50494)"
     style="fill:#ff0000;fill-opacity:0.75000000;fill-rule:evenodd;stroke-width:3.0000000pt;"
     id="path657" />
  <g
     transform="translate(-170.3885,254.7963)"
     id="g658">
    <path
       d="M 234.34975,168.96326 C 234.34975,133.63845 205.71333,105.00204 170.38852,105.00204 C 135.06371,105.00204 106.42729,133.63845 106.42729,168.96326 C 106.42729,204.28807 135.06371,232.92448 170.38852,232.92448 C 205.71333,232.92448 234.34975,204.28807 234.34975,168.96326 L 234.34975,168.96326 z "
       transform="matrix(1.020492,0.000000,0.000000,1.020492,183.4115,-45.66631)"
       style="fill:#beff00;fill-opacity:0.49999997;fill-rule:evenodd;stroke-width:3.0000000pt;"
       id="path659" />
    <path
       d="M 205.51471,168.17682 C 205.52161,146.60065 188.03261,129.10605 166.45645,129.10605 C 144.88029,129.10605 127.39129,146.60065 127.39819,168.17682 C 127.39129,189.75299 144.88029,207.24759 166.45645,207.24759 C 188.03261,207.24759 205.52161,189.75299 205.51471,168.17682 z "
       transform="matrix(1.040269,0.000000,0.000000,1.040268,184.1321,-48.18965)"
       style="fill:#92ff00;fill-opacity:0.49999997;fill-rule:evenodd;stroke-width:3.0000000pt;"
       id="path660" />
    <path
       d="M 193.45650,167.65253 C 193.46332,153.60465 182.07718,142.21297 168.02930,142.21297 C 153.98141,142.21297 142.59527,153.60465 142.60209,167.65253 C 142.59527,181.70041 153.98141,193.09209 168.02930,193.09209 C 182.07718,193.09209 193.46332,181.70041 193.45650,167.65253 L 193.45650,167.65253 z "
       transform="matrix(0.969071,0.000000,0.000000,0.969072,194.4593,-35.70804)"
       style="fill:#3aff00;fill-opacity:0.49999997;fill-rule:evenodd;stroke-width:3.0000000pt;"
       id="path661" />
    <path
       d="M 177.72828,166.34186 C 177.72828,158.23454 171.15600,151.66226 163.04868,151.66226 C 154.94135,151.66226 148.36907,158.23454 148.36907,166.34186 C 148.36907,174.44918 154.94135,181.02147 163.04868,181.02147 C 171.15600,181.02147 177.72828,174.44918 177.72828,166.34186 L 177.72828,166.34186 z "
       transform="matrix(0.964290,0.000000,0.000000,0.964290,200.0654,-33.64253)"
       style="fill:#00ff00;fill-opacity:0.49999997;fill-rule:evenodd;stroke-width:3.0000000pt;"
       id="path662" />
  </g>
  <g
     transform="translate(-121.1070,254.7963)"
     id="g663">
    <path
       d="M 234.34975,168.96326 C 234.34975,133.63845 205.71333,105.00204 170.38852,105.00204 C 135.06371,105.00204 106.42729,133.63845 106.42729,168.96326 C 106.42729,204.28807 135.06371,232.92448 170.38852,232.92448 C 205.71333,232.92448 234.34975,204.28807 234.34975,168.96326 L 234.34975,168.96326 z "
       transform="matrix(1.020492,0.000000,0.000000,1.020492,183.4115,-45.66631)"
       style="fill:#beff00;fill-opacity:0.49999997;fill-rule:evenodd;stroke-width:3.0000000pt;"
       id="path664" />
    <path
       d="M 205.51471,168.17682 C 205.52161,146.60065 188.03261,129.10605 166.45645,129.10605 C 144.88029,129.10605 127.39129,146.60065 127.39819,168.17682 C 127.39129,189.75299 144.88029,207.24759 166.45645,207.24759 C 188.03261,207.24759 205.52161,189.75299 205.51471,168.17682 z "
       transform="matrix(1.040269,0.000000,0.000000,1.040268,184.1321,-48.18965)"
       style="fill:#92ff00;fill-opacity:0.49999997;fill-rule:evenodd;stroke-width:3.0000000pt;"
       id="path665" />
    <path
       d="M 193.45650,167.65253 C 193.46332,153.60465 182.07718,142.21297 168.02930,142.21297 C 153.98141,142.21297 142.59527,153.60465 142.60209,167.65253 C 142.59527,181.70041 153.98141,193.09209 168.02930,193.09209 C 182.07718,193.09209 193.46332,181.70041 193.45650,167.65253 L 193.45650,167.65253 z "
       transform="matrix(0.969071,0.000000,0.000000,0.969072,194.4593,-35.70804)"
       style="fill:#3aff00;fill-opacity:0.49999997;fill-rule:evenodd;stroke-width:3.0000000pt;"
       id="path666" />
    <path
       d="M 177.72828,166.34186 C 177.72828,158.23454 171.15600,151.66226 163.04868,151.66226 C 154.94135,151.66226 148.36907,158.23454 148.36907,166.34186 C 148.36907,174.44918 154.94135,181.02147 163.04868,181.02147 C 171.15600,181.02147 177.72828,174.44918 177.72828,166.34186 L 177.72828,166.34186 z "
       transform="matrix(0.964290,0.000000,0.000000,0.964290,200.0654,-33.64253)"
       style="fill:#00ff00;fill-opacity:0.49999997;fill-rule:evenodd;stroke-width:3.0000000pt;"
       id="path667" />
  </g>
  <g
     transform="translate(-196.0779,297.2624)"
     id="g668">
    <path
       d="M 234.34975,168.96326 C 234.34975,133.63845 205.71333,105.00204 170.38852,105.00204 C 135.06371,105.00204 106.42729,133.63845 106.42729,168.96326 C 106.42729,204.28807 135.06371,232.92448 170.38852,232.92448 C 205.71333,232.92448 234.34975,204.28807 234.34975,168.96326 L 234.34975,168.96326 z "
       transform="matrix(1.020492,0.000000,0.000000,1.020492,183.4115,-45.66631)"
       style="fill:#beff00;fill-opacity:0.49999997;fill-rule:evenodd;stroke-width:3.0000000pt;"
       id="path669" />
    <path
       d="M 205.51471,168.17682 C 205.52161,146.60065 188.03261,129.10605 166.45645,129.10605 C 144.88029,129.10605 127.39129,146.60065 127.39819,168.17682 C 127.39129,189.75299 144.88029,207.24759 166.45645,207.24759 C 188.03261,207.24759 205.52161,189.75299 205.51471,168.17682 z "
       transform="matrix(1.040269,0.000000,0.000000,1.040268,184.1321,-48.18965)"
       style="fill:#92ff00;fill-opacity:0.49999997;fill-rule:evenodd;stroke-width:3.0000000pt;"
       id="path670" />
    <path
       d="M 193.45650,167.65253 C 193.46332,153.60465 182.07718,142.21297 168.02930,142.21297 C 153.98141,142.21297 142.59527,153.60465 142.60209,167.65253 C 142.59527,181.70041 153.98141,193.09209 168.02930,193.09209 C 182.07718,193.09209 193.46332,181.70041 193.45650,167.65253 L 193.45650,167.65253 z "
       transform="matrix(0.969071,0.000000,0.000000,0.969072,194.4593,-35.70804)"
       style="fill:#3aff00;fill-opacity:0.49999997;fill-rule:evenodd;stroke-width:3.0000000pt;"
       id="path671" />
    <path
       d="M 177.72828,166.34186 C 177.72828,158.23454 171.15600,151.66226 163.04868,151.66226 C 154.94135,151.66226 148.36907,158.23454 148.36907,166.34186 C 148.36907,174.44918 154.94135,181.02147 163.04868,181.02147 C 171.15600,181.02147 177.72828,174.44918 177.72828,166.34186 L 177.72828,166.34186 z "
       transform="matrix(0.964290,0.000000,0.000000,0.964290,200.0654,-33.64253)"
       style="fill:#00ff00;fill-opacity:0.49999997;fill-rule:evenodd;stroke-width:3.0000000pt;"
       id="path672" />
  </g>
  <g
     transform="translate(-146.7963,297.2624)"
     id="g673">
    <path
       d="M 234.34975,168.96326 C 234.34975,133.63845 205.71333,105.00204 170.38852,105.00204 C 135.06371,105.00204 106.42729,133.63845 106.42729,168.96326 C 106.42729,204.28807 135.06371,232.92448 170.38852,232.92448 C 205.71333,232.92448 234.34975,204.28807 234.34975,168.96326 L 234.34975,168.96326 z "
       transform="matrix(1.020492,0.000000,0.000000,1.020492,183.4115,-45.66631)"
       style="fill:#beff00;fill-opacity:0.49999997;fill-rule:evenodd;stroke-width:3.0000000pt;"
       id="path674" />
    <path
       d="M 205.51471,168.17682 C 205.52161,146.60065 188.03261,129.10605 166.45645,129.10605 C 144.88029,129.10605 127.39129,146.60065 127.39819,168.17682 C 127.39129,189.75299 144.88029,207.24759 166.45645,207.24759 C 188.03261,207.24759 205.52161,189.75299 205.51471,168.17682 z "
       transform="matrix(1.040269,0.000000,0.000000,1.040268,184.1321,-48.18965)"
       style="fill:#92ff00;fill-opacity:0.49999997;fill-rule:evenodd;stroke-width:3.0000000pt;"
       id="path675" />
    <path
       d="M 193.45650,167.65253 C 193.46332,153.60465 182.07718,142.21297 168.02930,142.21297 C 153.98141,142.21297 142.59527,153.60465 142.60209,167.65253 C 142.59527,181.70041 153.98141,193.09209 168.02930,193.09209 C 182.07718,193.09209 193.46332,181.70041 193.45650,167.65253 L 193.45650,167.65253 z "
       transform="matrix(0.969071,0.000000,0.000000,0.969072,194.4593,-35.70804)"
       style="fill:#3aff00;fill-opacity:0.49999997;fill-rule:evenodd;stroke-width:3.0000000pt;"
       id="path676" />
    <path
       d="M 177.72828,166.34186 C 177.72828,158.23454 171.15600,151.66226 163.04868,151.66226 C 154.94135,151.66226 148.36907,158.23454 148.36907,166.34186 C 148.36907,174.44918 154.94135,181.02147 163.04868,181.02147 C 171.15600,181.02147 177.72828,174.44918 177.72828,166.34186 L 177.72828,166.34186 z "
       transform="matrix(0.964290,0.000000,0.000000,0.964290,200.0654,-33.64253)"
       style="fill:#00ff00;fill-opacity:0.49999997;fill-rule:evenodd;stroke-width:3.0000000pt;"
       id="path677" />
  </g>
  <g
     transform="translate(-97.51466,297.2624)"
     id="g678">
    <path
       d="M 234.34975,168.96326 C 234.34975,133.63845 205.71333,105.00204 170.38852,105.00204 C 135.06371,105.00204 106.42729,133.63845 106.42729,168.96326 C 106.42729,204.28807 135.06371,232.92448 170.38852,232.92448 C 205.71333,232.92448 234.34975,204.28807 234.34975,168.96326 L 234.34975,168.96326 z "
       transform="matrix(1.020492,0.000000,0.000000,1.020492,183.4115,-45.66631)"
       style="fill:#beff00;fill-opacity:0.49999997;fill-rule:evenodd;stroke-width:3.0000000pt;"
       id="path679" />
    <path
       d="M 205.51471,168.17682 C 205.52161,146.60065 188.03261,129.10605 166.45645,129.10605 C 144.88029,129.10605 127.39129,146.60065 127.39819,168.17682 C 127.39129,189.75299 144.88029,207.24759 166.45645,207.24759 C 188.03261,207.24759 205.52161,189.75299 205.51471,168.17682 z "
       transform="matrix(1.040269,0.000000,0.000000,1.040268,184.1321,-48.18965)"
       style="fill:#92ff00;fill-opacity:0.49999997;fill-rule:evenodd;stroke-width:3.0000000pt;"
       id="path680" />
    <path
       d="M 193.45650,167.65253 C 193.46332,153.60465 182.07718,142.21297 168.02930,142.21297 C 153.98141,142.21297 142.59527,153.60465 142.60209,167.65253 C 142.59527,181.70041 153.98141,193.09209 168.02930,193.09209 C 182.07718,193.09209 193.46332,181.70041 193.45650,167.65253 L 193.45650,167.65253 z "
       transform="matrix(0.969071,0.000000,0.000000,0.969072,194.4593,-35.70804)"
       style="fill:#3aff00;fill-opacity:0.49999997;fill-rule:evenodd;stroke-width:3.0000000pt;"
       id="path681" />
    <path
       d="M 177.72828,166.34186 C 177.72828,158.23454 171.15600,151.66226 163.04868,151.66226 C 154.94135,151.66226 148.36907,158.23454 148.36907,166.34186 C 148.36907,174.44918 154.94135,181.02147 163.04868,181.02147 C 171.15600,181.02147 177.72828,174.44918 177.72828,166.34186 L 177.72828,166.34186 z "
       transform="matrix(0.964290,0.000000,0.000000,0.964290,200.0654,-33.64253)"
       style="fill:#00ff00;fill-opacity:0.49999997;fill-rule:evenodd;stroke-width:3.0000000pt;"
       id="path682" />
  </g>
<metadata>
<rdf:RDF xmlns="http://web.resource.org/cc/"
xmlns:dc="http://purl.org/dc/elements/1.1/"
xmlns:rdf="http://www.w3.org/1999/02/22-rdf-syntax-ns#">
<Work rdf:about="">
<dc:title>leningrad3.wip</dc:title>
<dc:date>2004</dc:date>
<dc:description>graphic art abstract colour nuclear svg eps pdf</dc:description>
<dc:creator><Agent>
<dc:title>Rhea Myers</dc:title>
</Agent></dc:creator>
<dc:rights><Agent>
<dc:title>Rhea Myers</dc:title>
</Agent></dc:rights>
<dc:type rdf:resource="http://purl.org/dc/dcmitype/StillImage" />
<dc:source rdf:resource="http://www.Rhea Myers.org/art/1968"/>
<license rdf:resource="http://creativecommons.org/licenses/by-sa/2.0/" />
</Work>
<License rdf:about="http://creativecommons.org/licenses/by-sa/2.0/">
<permits rdf:resource="http://web.resource.org/cc/Reproduction" />
<permits rdf:resource="http://web.resource.org/cc/Distribution" />
<requires rdf:resource="http://web.resource.org/cc/Notice" />
<requires rdf:resource="http://web.resource.org/cc/Attribution" />
<permits rdf:resource="http://web.resource.org/cc/DerivativeWorks" />
<requires rdf:resource="http://web.resource.org/cc/ShareAlike" />
</License>
</rdf:RDF>
</metadata>
</svg>


