<?xml version="1.0" encoding="UTF-8" standalone="no"?>
<!DOCTYPE svg PUBLIC "-//W3C//DTD SVG 1.0//EN"
"http://www.w3.org/TR/2001/REC-SVG-20010904/DTD/svg10.dtd">
<!-- Created with Inkscape (http://www.inkscape.org/) -->
<svg
   xmlns="http://www.w3.org/2000/svg"
   xmlns:xlink="http://www.w3.org/1999/xlink"
   version="1.0"
   x="0.0000000"
   y="0.0000000"
   width="644.93457"
   height="458.60001"
   id="svg629">
  <defs
     id="defs631" />
  <g
     transform="translate(-45.22680,-102.5985)"
     id="g837">
    <rect
       width="644.93457"
       height="458.60001"
       x="45.226810"
       y="102.59850"
       style="fill:#750b2a;fill-rule:evenodd;"
       id="rect679" />
    <g
       style="fill:#ff9675;"
       id="g668">
      <path
         d="M 297.59251,266.77209 C 297.59407,256.52903 293.13889,248.22385 287.64260,248.22385 C 282.14632,248.22385 277.69114,256.52903 277.69270,266.77209 C 277.69114,277.01515 282.14632,285.32033 287.64260,285.32033 C 293.13889,285.32033 297.59407,277.01515 297.59251,266.77209 L 297.59251,266.77209 z "
         transform="matrix(0.958549,-0.284927,0.284927,0.958549,-56.85163,95.05206)"
         style="fill-rule:evenodd;stroke-width:1.0000000pt;"
         id="path633" />
      <path
         d="M 538.19931,414.21149 C 538.19931,401.97224 532.93463,392.05037 526.44031,392.05037 C 519.94599,392.05037 514.68131,401.97224 514.68131,414.21149 C 514.68131,426.45074 519.94599,436.37261 526.44031,436.37261 C 532.93463,436.37261 538.19931,426.45074 538.19931,414.21149 z "
         transform="matrix(0.893730,-0.448606,0.448606,0.893730,-119.9228,282.8958)"
         style="fill-rule:evenodd;stroke-width:1.0000000pt;"
         id="path634" />
      <path
         d="M 208.04341,253.65630 C 208.04497,244.16272 203.58979,236.46523 198.09350,236.46523 C 192.59722,236.46523 188.14204,244.16272 188.14360,253.65630 C 188.14204,263.14988 192.59722,270.84737 198.09350,270.84737 C 203.58979,270.84737 208.04497,263.14988 208.04341,253.65630 L 208.04341,253.65630 z "
         transform="matrix(0.994935,0.100521,-0.100521,0.994935,33.73746,-18.62781)"
         style="fill-rule:evenodd;stroke-width:1.0000000pt;"
         id="path635" />
      <path
         d="M 257.79293,320.59201 C 257.79658,310.09605 253.54328,301.58352 248.29530,301.58352 C 243.04733,301.58352 238.79403,310.09605 238.79768,320.59201 C 238.79403,331.08797 243.04733,339.60050 248.29530,339.60050 C 253.54328,339.60050 257.79658,331.08797 257.79293,320.59201 z "
         transform="matrix(0.990199,-0.139662,0.139662,0.990199,-34.66520,36.16998)"
         style="fill-rule:evenodd;stroke-width:1.0000000pt;"
         id="path639" />
      <path
         d="M 217.08877,304.31039 C 217.08877,294.81871 213.64648,287.12419 209.40021,287.12419 C 205.15394,287.12419 201.71165,294.81871 201.71165,304.31039 C 201.71165,313.80207 205.15394,321.49659 209.40021,321.49659 C 213.64648,321.49659 217.08877,313.80207 217.08877,304.31039 L 217.08877,304.31039 z "
         transform="matrix(0.996686,8.134031e-2,-8.134031e-2,0.996686,29.06462,-14.21545)"
         style="fill-rule:evenodd;stroke-width:1.0000000pt;"
         id="path640" />
      <path
         d="M 142.91674,202.09770 C 142.91674,189.10909 138.05704,178.57975 132.06230,178.57975 C 126.06756,178.57975 121.20786,189.10909 121.20786,202.09770 C 121.20786,215.08631 126.06756,225.61565 132.06230,225.61565 C 138.05704,225.61565 142.91674,215.08631 142.91674,202.09770 z "
         transform="matrix(0.874170,0.485619,-0.485619,0.874170,116.5691,-33.27515)"
         style="fill-rule:evenodd;stroke-width:1.0000000pt;"
         id="path641" />
      <path
         d="M 297.59251,266.77209 C 297.59407,256.52903 293.13889,248.22385 287.64260,248.22385 C 282.14632,248.22385 277.69114,256.52903 277.69270,266.77209 C 277.69114,277.01515 282.14632,285.32033 287.64260,285.32033 C 293.13889,285.32033 297.59407,277.01515 297.59251,266.77209 L 297.59251,266.77209 z "
         transform="matrix(0.985114,0.171903,-0.171903,0.985114,-60.21294,-83.23828)"
         style="fill-rule:evenodd;stroke-width:1.0000000pt;"
         id="path644" />
      <path
         d="M 142.91674,202.09770 C 142.91674,189.10909 138.05704,178.57975 132.06230,178.57975 C 126.06756,178.57975 121.20786,189.10909 121.20786,202.09770 C 121.20786,215.08631 126.06756,225.61565 132.06230,225.61565 C 138.05704,225.61565 142.91674,215.08631 142.91674,202.09770 z "
         transform="matrix(0.874170,0.485619,-0.485619,0.874170,116.5691,-77.59741)"
         style="fill-rule:evenodd;stroke-width:1.0000000pt;"
         id="path645" />
      <path
         d="M 132.96687,373.50739 C 132.96687,362.76683 128.91712,354.05988 123.92150,354.05988 C 118.92589,354.05988 114.87614,362.76683 114.87614,373.50739 C 114.87614,384.24795 118.92589,392.95490 123.92150,392.95490 C 128.91712,392.95490 132.96687,384.24795 132.96687,373.50739 L 132.96687,373.50739 z "
         transform="matrix(0.975838,0.218498,-0.218498,0.975838,85.50945,-18.95630)"
         style="fill-rule:evenodd;stroke-width:1.0000000pt;"
         id="path647" />
      <path
         d="M 132.96687,373.50739 C 132.96687,362.76683 128.91712,354.05988 123.92150,354.05988 C 118.92589,354.05988 114.87614,362.76683 114.87614,373.50739 C 114.87614,384.24795 118.92589,392.95490 123.92150,392.95490 C 128.91712,392.95490 132.96687,384.24795 132.96687,373.50739 L 132.96687,373.50739 z "
         transform="matrix(0.975838,0.218498,-0.218498,0.975838,79.17769,14.51147)"
         style="fill-rule:evenodd;stroke-width:1.0000000pt;"
         id="path648" />
    </g>
  </g>
<metadata>
<rdf:RDF xmlns="http://web.resource.org/cc/"
xmlns:dc="http://purl.org/dc/elements/1.1/"
xmlns:rdf="http://www.w3.org/1999/02/22-rdf-syntax-ns#">
<Work rdf:about="">
<dc:title>american</dc:title>
<dc:date>2004</dc:date>
<dc:description>graphic art abstract colour nuclear svg eps pdf</dc:description>
<dc:creator><Agent>
<dc:title>Rhea Myers</dc:title>
</Agent></dc:creator>
<dc:rights><Agent>
<dc:title>Rhea Myers</dc:title>
</Agent></dc:rights>
<dc:type rdf:resource="http://purl.org/dc/dcmitype/StillImage" />
<dc:source rdf:resource="http://www.Rhea Myers.org/art/1968"/>
<license rdf:resource="http://creativecommons.org/licenses/by-sa/2.0/" />
</Work>
<License rdf:about="http://creativecommons.org/licenses/by-sa/2.0/">
<permits rdf:resource="http://web.resource.org/cc/Reproduction" />
<permits rdf:resource="http://web.resource.org/cc/Distribution" />
<requires rdf:resource="http://web.resource.org/cc/Notice" />
<requires rdf:resource="http://web.resource.org/cc/Attribution" />
<permits rdf:resource="http://web.resource.org/cc/DerivativeWorks" />
<requires rdf:resource="http://web.resource.org/cc/ShareAlike" />
</License>
</rdf:RDF>
</metadata>
</svg>


