<?xml version="1.0" encoding="UTF-8" standalone="no"?>
<!DOCTYPE svg PUBLIC "-//W3C//DTD SVG 20010904//EN"
"http://www.w3.org/TR/2001/REC-SVG-20010904/DTD/svg10.dtd">
<!-- Created with Inkscape (http://www.inkscape.org/) -->
<svg
   version="1.0"
   x="0.0000000"
   y="0.0000000"
   width="552.00000pt"
   height="613.00000pt"
   id="svg875"
   xmlns="http://www.w3.org/2000/svg"
   xmlns:sodipodi="http://sodipodi.sourceforge.net/DTD/sodipodi-0.dtd"
   xmlns:inkscape="http://www.inkscape.org/namespaces/inkscape"
   xmlns:xlink="http://www.w3.org/1999/xlink"
   sodipodi:version="0.32"
   inkscape:version="0.38.1"
   sodipodi:docname="camden_philadelphia.svg"
   sodipodi:docbase="/Users/Rhea Myers/Documents/images/1968/Final">
  <sodipodi:namedview
     id="base"
     pagecolor="#ffffff"
     bordercolor="#666666"
     borderopacity="1.0"
     inkscape:pageopacity="0.0"
     inkscape:pageshadow="2"
     inkscape:zoom="6.2610206"
     inkscape:cx="550.49038"
     inkscape:cy="0.0000000"
     inkscape:window-width="640"
     inkscape:window-height="501"
     inkscape:window-x="20"
     inkscape:window-y="42" />
  <defs
     id="defs877" />
  <g
     id="g859"
     transform="translate(-29.90484,-65.05325)">
    <rect
       width="190.78781"
       height="211.82526"
       x="134.20438"
       y="197.08142"
       transform="matrix(3.615132,0.000000,0.000000,3.615132,-455.2617,-647.4221)"
       style="font-size:12.000000;fill:#4c1900;fill-rule:evenodd;stroke-width:3.0000000pt;"
       id="rect890" />
    <g
       transform="matrix(3.615132,0.000000,0.000000,3.615132,-455.2617,-647.4221)"
       style="fill:#7f4c00;"
       id="g884">
      <path
         d="M 267.68324,322.94330 C 267.68324,286.28445 237.96537,256.56657 201.30652,256.56657 C 164.64767,256.56657 134.92980,286.28445 134.92980,322.94330 C 134.92980,359.60215 164.64767,389.32003 201.30652,389.32003 C 237.96537,389.32003 267.68324,359.60215 267.68324,322.94330 L 267.68324,322.94330 z "
         transform="matrix(1.103825,0.000000,0.000000,1.103825,-11.83280,-54.20436)"
         style="fill-rule:evenodd;stroke-width:3.0000000pt;"
         id="path881" />
      <path
         d="M 267.68324,322.94330 C 267.68324,286.28445 237.96537,256.56657 201.30652,256.56657 C 164.64767,256.56657 134.92980,286.28445 134.92980,322.94330 C 134.92980,359.60215 164.64767,389.32003 201.30652,389.32003 C 237.96537,389.32003 267.68324,359.60215 267.68324,322.94330 L 267.68324,322.94330 z "
         transform="matrix(1.103825,0.000000,0.000000,1.103825,-8.931093,-83.22154)"
         style="fill-rule:evenodd;stroke-width:3.0000000pt;"
         id="path882" />
    </g>
    <g
       transform="matrix(3.615132,0.000000,0.000000,3.615132,-455.2617,-647.4221)"
       style="fill:#b39900;"
       id="g887">
      <path
         d="M 241.56790,314.60086 C 241.57211,298.57214 228.57944,285.57606 212.55072,285.57606 C 196.52200,285.57606 183.52933,298.57214 183.53354,314.60086 C 183.52933,330.62958 196.52200,343.62566 212.55072,343.62566 C 228.57944,343.62566 241.57211,330.62958 241.56790,314.60086 z "
         transform="matrix(1.037500,0.000000,0.000000,1.037500,-10.14703,-24.12997)"
         style="fill-rule:evenodd;stroke-width:3.0000000pt;"
         id="path879" />
      <path
         d="M 241.56790,314.60086 C 241.57211,298.57214 228.57944,285.57606 212.55072,285.57606 C 196.52200,285.57606 183.52933,298.57214 183.53354,314.60086 C 183.52933,330.62958 196.52200,343.62566 212.55072,343.62566 C 228.57944,343.62566 241.57211,330.62958 241.56790,314.60086 z "
         transform="matrix(1.037500,0.000000,0.000000,1.037500,-7.245324,-53.14716)"
         style="fill-rule:evenodd;stroke-width:3.0000000pt;"
         id="path883" />
    </g>
  </g>
<metadata>
<rdf:RDF xmlns="http://web.resource.org/cc/"
xmlns:dc="http://purl.org/dc/elements/1.1/"
xmlns:rdf="http://www.w3.org/1999/02/22-rdf-syntax-ns#">
<Work rdf:about="">
<dc:title>camden philadelphia</dc:title>
<dc:date>2004</dc:date>
<dc:description>graphic art abstract colour nuclear svg eps pdf</dc:description>
<dc:creator><Agent>
<dc:title>Rhea Myers</dc:title>
</Agent></dc:creator>
<dc:rights><Agent>
<dc:title>Rhea Myers</dc:title>
</Agent></dc:rights>
<dc:type rdf:resource="http://purl.org/dc/dcmitype/StillImage" />
<dc:source rdf:resource="http://www.Rhea Myers.org/art/1968"/>
<license rdf:resource="http://creativecommons.org/licenses/by-sa/2.0/" />
</Work>
<License rdf:about="http://creativecommons.org/licenses/by-sa/2.0/">
<permits rdf:resource="http://web.resource.org/cc/Reproduction" />
<permits rdf:resource="http://web.resource.org/cc/Distribution" />
<requires rdf:resource="http://web.resource.org/cc/Notice" />
<requires rdf:resource="http://web.resource.org/cc/Attribution" />
<permits rdf:resource="http://web.resource.org/cc/DerivativeWorks" />
<requires rdf:resource="http://web.resource.org/cc/ShareAlike" />
</License>
</rdf:RDF>
</metadata>
</svg>


