<?xml version="1.0" encoding="UTF-8" standalone="no"?>
<!DOCTYPE svg PUBLIC "-//W3C//DTD SVG 1.0//EN"
"http://www.w3.org/TR/2001/REC-SVG-20010904/DTD/svg10.dtd">
<!-- Created with Inkscape (http://www.inkscape.org/) -->
<svg
   xmlns="http://www.w3.org/2000/svg"
   xmlns:xlink="http://www.w3.org/1999/xlink"
   version="1.0"
   x="0.0000000"
   y="0.0000000"
   width="552.50000"
   height="428.75000"
   id="svg882">
  <defs
     id="defs884" />
  <g
     transform="translate(-4.791260e-7,4.101562e-6)"
     id="g853">
    <text
       id="text641" />
    <text
       id="text643" />
    <path
       d="M 552.00000,427.47867 L 0.0000000,427.47867 L 0.0000000,-1.7210549e-06 L 552.00000,-1.7210549e-06 L 552.00000,427.47867 z "
       style="fill:#1e4c3d;"
       id="path644" />
    <text
       id="text645" />
    <path
       d="M 158.12000,262.19700 C 10.679000,373.30100 2.0090000,397.23900 12.328000,410.93400 C 22.646000,424.62800 48.048000,422.89200 195.49000,311.78800 C 342.93100,200.68300 556.57800,22.282000 546.25800,8.5880000 C 535.93800,-5.1060000 305.56100,151.09100 158.12000,262.19700 z "
       style="fill:#8f7d23;"
       id="path646" />
    <text
       id="text647" />
    <path
       d="M 363.86400,146.55100 C 376.32100,163.08100 234.19000,274.07200 138.55800,346.13500 C 42.927000,418.19900 21.814000,413.89300 17.552000,407.51600 C 13.176000,400.96500 14.277000,380.17900 109.90700,308.11600 C 205.54000,236.05100 352.65200,131.67300 363.86400,146.55100 z "
       style="fill:#ff994c;"
       id="path648" />
    <text
       id="text649" />
    <path
       d="M 78.204000,339.78100 C 47.612000,362.83400 17.062000,396.23700 22.909000,403.99600 C 28.757000,411.75600 68.788000,390.93500 99.380000,367.88300 C 156.43900,324.88600 237.61700,253.85100 231.76900,246.09100 C 225.92200,238.33100 135.26300,296.78400 78.204000,339.78100 z "
       style="fill:#ffcc7f;"
       id="path650" />
    <text
       id="text651" />
    <text
       id="text652" />
    <text
       x="282.80231"
       y="284.23282"
       id="text1282" />
    <text
       x="282.80231"
       y="284.23282"
       id="text1305" />
  </g>
<metadata>
<rdf:RDF xmlns="http://web.resource.org/cc/"
xmlns:dc="http://purl.org/dc/elements/1.1/"
xmlns:rdf="http://www.w3.org/1999/02/22-rdf-syntax-ns#">
<Work rdf:about="">
<dc:title>detroit</dc:title>
<dc:date>2004</dc:date>
<dc:description>graphic art abstract colour nuclear svg eps pdf</dc:description>
<dc:creator><Agent>
<dc:title>Rhea Myers</dc:title>
</Agent></dc:creator>
<dc:rights><Agent>
<dc:title>Rhea Myers</dc:title>
</Agent></dc:rights>
<dc:type rdf:resource="http://purl.org/dc/dcmitype/StillImage" />
<dc:source rdf:resource="http://www.Rhea Myers.org/art/1968"/>
<license rdf:resource="http://creativecommons.org/licenses/by-sa/2.0/" />
</Work>
<License rdf:about="http://creativecommons.org/licenses/by-sa/2.0/">
<permits rdf:resource="http://web.resource.org/cc/Reproduction" />
<permits rdf:resource="http://web.resource.org/cc/Distribution" />
<requires rdf:resource="http://web.resource.org/cc/Notice" />
<requires rdf:resource="http://web.resource.org/cc/Attribution" />
<permits rdf:resource="http://web.resource.org/cc/DerivativeWorks" />
<requires rdf:resource="http://web.resource.org/cc/ShareAlike" />
</License>
</rdf:RDF>
</metadata>
</svg>


