<?xml version="1.0" encoding="UTF-8" standalone="no"?>
<!DOCTYPE svg PUBLIC "-//W3C//DTD SVG 20010904//EN"
"http://www.w3.org/TR/2001/REC-SVG-20010904/DTD/svg10.dtd">
<!-- Created with Inkscape (http://www.inkscape.org/) -->
<svg
   version="1.0"
   x="0.0000000"
   y="0.0000000"
   width="271.05000pt"
   height="325.95000pt"
   id="svg1"
   sodipodi:version="0.32"
   inkscape:version="0.38.1"
   sodipodi:docname="detroit_3.svg"
   sodipodi:docbase="/Users/Rhea Myers/Documents/images/1968/final"
   xmlns="http://www.w3.org/2000/svg"
   xmlns:inkscape="http://www.inkscape.org/namespaces/inkscape"
   xmlns:sodipodi="http://sodipodi.sourceforge.net/DTD/sodipodi-0.dtd"
   xmlns:xlink="http://www.w3.org/1999/xlink">
  <sodipodi:namedview
     id="base"
     pagecolor="#ffffff"
     bordercolor="#666666"
     borderopacity="1.0"
     inkscape:pageopacity="0.0"
     inkscape:pageshadow="2"
     inkscape:zoom="42.882673"
     inkscape:cx="274.24142"
     inkscape:cy="3.8853899"
     inkscape:window-width="640"
     inkscape:window-height="501"
     borderlayer="top"
     inkscape:window-x="20"
     inkscape:window-y="42" />
  <defs
     id="defs3" />
  <g
     id="g830"
     transform="translate(-96.06546,-83.43002)">
    <rect
       width="338.70941"
       height="408.02670"
       x="96.098930"
       y="83.495689"
       style="font-size:12.000000;fill:#92673e;fill-rule:evenodd;stroke-width:3.0000000pt;"
       id="rect568" />
    <path
       d="M 476.25092,337.98584 C 476.26406,233.73261 391.75380,149.21169 287.50055,149.21169 C 183.24731,149.21169 98.737040,233.73261 98.750183,337.98584 C 98.737040,442.23907 183.24731,526.75999 287.50055,526.75999 C 391.75380,526.75999 476.26406,442.23907 476.25092,337.98584 z "
       transform="matrix(1.061258,0.000000,0.000000,1.061258,1.450749,-15.39195)"
       style="fill:#d77228;fill-rule:evenodd;stroke-width:3.0000000pt;"
       id="path567" />
    <path
       d="M 418.75077,336.73584 C 418.75077,279.43620 372.30023,232.98566 315.00058,232.98566 C 257.70093,232.98566 211.25039,279.43620 211.25039,336.73584 C 211.25039,394.03548 257.70093,440.48602 315.00058,440.48602 C 372.30023,440.48602 418.75077,394.03548 418.75077,336.73584 L 418.75077,336.73584 z "
       transform="matrix(1.027108,0.000000,0.000000,1.027108,-16.97665,-2.565872)"
       style="fill:#e78830;fill-rule:evenodd;stroke-width:3.0000000pt;"
       id="path566" />
    <path
       d="M 376.25066,337.67334 C 376.25066,301.25700 346.72939,271.73571 310.31305,271.73571 C 273.89671,271.73571 244.37544,301.25700 244.37544,337.67334 C 244.37544,374.08968 273.89671,403.61097 310.31305,403.61097 C 346.72939,403.61097 376.25066,374.08968 376.25066,337.67334 L 376.25066,337.67334 z "
       style="fill:#d5bf00;fill-rule:evenodd;stroke-width:3.0000000pt;"
       id="path564"
       transform="translate(-3.750057,5.624893)" />
    <path
       d="M 90.406900,77.976900 L 90.406900,545.07900 L 508.00100,545.07900 L 508.00100,77.976900 L 90.406900,77.976900 z M 96.098900,82.778000 L 96.098900,490.80500 L 434.80800,490.80500 L 434.80800,82.778000 L 96.098900,82.778000 z "
       style="font-size:12.000000;fill:#ffffff;fill-rule:evenodd;stroke-width:3.0000000pt;"
       id="path593" />
  </g>
<metadata>
<rdf:RDF xmlns="http://web.resource.org/cc/"
xmlns:dc="http://purl.org/dc/elements/1.1/"
xmlns:rdf="http://www.w3.org/1999/02/22-rdf-syntax-ns#">
<Work rdf:about="">
<dc:title>detroit 3</dc:title>
<dc:date>2004</dc:date>
<dc:description>graphic art abstract colour nuclear svg eps pdf</dc:description>
<dc:creator><Agent>
<dc:title>Rhea Myers</dc:title>
</Agent></dc:creator>
<dc:rights><Agent>
<dc:title>Rhea Myers</dc:title>
</Agent></dc:rights>
<dc:type rdf:resource="http://purl.org/dc/dcmitype/StillImage" />
<dc:source rdf:resource="http://www.Rhea Myers.org/art/1968"/>
<license rdf:resource="http://creativecommons.org/licenses/by-sa/2.0/" />
</Work>
<License rdf:about="http://creativecommons.org/licenses/by-sa/2.0/">
<permits rdf:resource="http://web.resource.org/cc/Reproduction" />
<permits rdf:resource="http://web.resource.org/cc/Distribution" />
<requires rdf:resource="http://web.resource.org/cc/Notice" />
<requires rdf:resource="http://web.resource.org/cc/Attribution" />
<permits rdf:resource="http://web.resource.org/cc/DerivativeWorks" />
<requires rdf:resource="http://web.resource.org/cc/ShareAlike" />
</License>
</rdf:RDF>
</metadata>
</svg>


