<?xml version="1.0" encoding="UTF-8" standalone="no"?>
<!DOCTYPE svg PUBLIC "-//W3C//DTD SVG 20010904//EN"
"http://www.w3.org/TR/2001/REC-SVG-20010904/DTD/svg10.dtd">
<!-- Created with Inkscape (http://www.inkscape.org/) -->
<svg
   version="1.0"
   x="0.0000000"
   y="0.0000000"
   width="256.40000pt"
   height="342.60000pt"
   id="svg1"
   sodipodi:version="0.32"
   inkscape:version="0.38.1"
   sodipodi:docname="leningrad_2.svg"
   sodipodi:docbase="/Users/Rhea Myers/Documents/images/1968/final"
   xmlns="http://www.w3.org/2000/svg"
   xmlns:inkscape="http://www.inkscape.org/namespaces/inkscape"
   xmlns:sodipodi="http://sodipodi.sourceforge.net/DTD/sodipodi-0.dtd"
   xmlns:xlink="http://www.w3.org/1999/xlink">
  <sodipodi:namedview
     id="base"
     pagecolor="#ffffff"
     bordercolor="#666666"
     borderopacity="1.0"
     inkscape:pageopacity="0.0"
     inkscape:pageshadow="2"
     inkscape:zoom="16.922004"
     inkscape:cx="254.27624"
     inkscape:cy="9.7237561"
     inkscape:window-width="640"
     inkscape:window-height="501"
     borderlayer="top"
     inkscape:window-x="66"
     inkscape:window-y="55" />
  <defs
     id="defs3" />
  <g
     id="g610"
     transform="translate(-12.67454,-27.84876)">
    <rect
       width="320.35330"
       height="428.19501"
       x="12.687259"
       y="27.865982"
       style="fill:#ec0911;fill-rule:evenodd;stroke-width:3.0000000pt;"
       id="rect592" />
    <path
       d="M 423.96588,225.04720 C 423.96588,89.870877 314.38383,-19.711185 179.20752,-19.711185 C 44.031207,-19.711185 -65.550844,89.870877 -65.550842,225.04720 C -65.550844,360.22352 44.031207,469.80558 179.20752,469.80558 C 314.38383,469.80558 423.96588,360.22352 423.96588,225.04720 L 423.96588,225.04720 z "
       transform="matrix(1.025918,0.000000,0.000000,1.030238,-13.10283,-12.09132)"
       style="fill:#940073;fill-rule:evenodd;stroke-width:3.0000000pt;"
       id="path590" />
    <path
       d="M 325.95523,230.37183 C 325.95523,150.06469 260.85344,84.962887 180.54631,84.962887 C 100.23918,84.962887 35.137388,150.06469 35.137390,230.37183 C 35.137388,310.67897 100.23918,375.78077 180.54631,375.78077 C 260.85344,375.78077 325.95523,310.67897 325.95523,230.37183 L 325.95523,230.37183 z "
       transform="translate(-9.796947,-10.61099)"
       style="fill:#a8009e;fill-rule:evenodd;stroke-width:3.0000000pt;"
       id="path589" />
    <path
       d="M 249.69968,218.41016 C 249.69968,173.19867 213.04853,136.54752 167.83705,136.54752 C 122.62557,136.54752 85.974426,173.19867 85.974426,218.41016 C 85.974426,263.62165 122.62557,300.27280 167.83705,300.27280 C 213.04853,300.27280 249.69968,263.62165 249.69968,218.41016 L 249.69968,218.41016 z "
       transform="translate(2.912331,1.350677)"
       style="fill:#9200de;fill-rule:evenodd;stroke-width:3.0000000pt;"
       id="path588" />
    <path
       d="M 12.687300,27.866000 L 12.687300,456.06100 L 333.04100,456.06100 L 333.04100,27.866000 L 12.687300,27.866000 z M -83.524400,-35.570400 L -83.524400,474.03500 L 426.08000,474.03500 L 426.08000,-35.570400 L -83.524400,-35.570400 z "
       style="fill:#ffffff;fill-rule:evenodd;stroke-width:3.0000000pt;"
       id="path609" />
  </g>
<metadata>
<rdf:RDF xmlns="http://web.resource.org/cc/"
xmlns:dc="http://purl.org/dc/elements/1.1/"
xmlns:rdf="http://www.w3.org/1999/02/22-rdf-syntax-ns#">
<Work rdf:about="">
<dc:title>leningrad 2</dc:title>
<dc:date>2004</dc:date>
<dc:description>graphic art abstract colour nuclear svg eps pdf</dc:description>
<dc:creator><Agent>
<dc:title>Rhea Myers</dc:title>
</Agent></dc:creator>
<dc:rights><Agent>
<dc:title>Rhea Myers</dc:title>
</Agent></dc:rights>
<dc:type rdf:resource="http://purl.org/dc/dcmitype/StillImage" />
<dc:source rdf:resource="http://www.Rhea Myers.org/art/1968"/>
<license rdf:resource="http://creativecommons.org/licenses/by-sa/2.0/" />
</Work>
<License rdf:about="http://creativecommons.org/licenses/by-sa/2.0/">
<permits rdf:resource="http://web.resource.org/cc/Reproduction" />
<permits rdf:resource="http://web.resource.org/cc/Distribution" />
<requires rdf:resource="http://web.resource.org/cc/Notice" />
<requires rdf:resource="http://web.resource.org/cc/Attribution" />
<permits rdf:resource="http://web.resource.org/cc/DerivativeWorks" />
<requires rdf:resource="http://web.resource.org/cc/ShareAlike" />
</License>
</rdf:RDF>
</metadata>
</svg>


