<?xml version="1.0" encoding="UTF-8" standalone="no"?>
<!DOCTYPE svg PUBLIC "-//W3C//DTD SVG 1.0//EN"
"http://www.w3.org/TR/2001/REC-SVG-20010904/DTD/svg10.dtd">
<!-- Created with Inkscape (http://www.inkscape.org/) -->
<svg
   xmlns="http://www.w3.org/2000/svg"
   xmlns:xlink="http://www.w3.org/1999/xlink"
   version="1.0"
   x="0.0000000"
   y="0.0000000"
   width="320.00000"
   height="431.25000"
   id="svg573">
  <defs
     id="defs575" />
  <g
     transform="translate(-37.67931,-162.6172)"
     id="g902">
    <rect
       width="319.41754"
       height="429.88632"
       x="37.679306"
       y="162.61722"
       style="fill:#e57b10;fill-rule:evenodd;stroke-width:3.0000000pt;"
       id="rect683" />
    <g
       style="fill:#f5b717;"
       id="g1154">
      <g
         id="g1131">
        <g
           id="g1120">
          <path
             d="M 234.34975,168.96326 C 234.34975,133.63845 205.71333,105.00204 170.38852,105.00204 C 135.06371,105.00204 106.42729,133.63845 106.42729,168.96326 C 106.42729,204.28807 135.06371,232.92448 170.38852,232.92448 C 205.71333,232.92448 234.34975,204.28807 234.34975,168.96326 L 234.34975,168.96326 z "
             transform="matrix(1.020492,0.000000,0.000000,1.020492,11.45020,122.6250)"
             style="fill-rule:evenodd;stroke-width:3.0000000pt;"
             id="path633" />
          <path
             d="M 234.34975,168.96326 C 234.34975,133.63845 205.71333,105.00204 170.38852,105.00204 C 135.06371,105.00204 106.42729,133.63845 106.42729,168.96326 C 106.42729,204.28807 135.06371,232.92448 170.38852,232.92448 C 205.71333,232.92448 234.34975,204.28807 234.34975,168.96326 L 234.34975,168.96326 z "
             transform="matrix(1.020492,0.000000,0.000000,1.020492,-14.23920,165.0911)"
             style="fill-rule:evenodd;stroke-width:3.0000000pt;"
             id="path643" />
          <path
             d="M 234.34975,168.96326 C 234.34975,133.63845 205.71333,105.00204 170.38852,105.00204 C 135.06371,105.00204 106.42729,133.63845 106.42729,168.96326 C 106.42729,204.28807 135.06371,232.92448 170.38852,232.92448 C 205.71333,232.92448 234.34975,204.28807 234.34975,168.96326 L 234.34975,168.96326 z "
             transform="matrix(1.020492,0.000000,0.000000,1.020492,-12.66640,251.5961)"
             style="fill-rule:evenodd;stroke-width:3.0000000pt;"
             id="path669" />
          <path
             d="M 234.34975,168.96326 C 234.34975,133.63845 205.71333,105.00204 170.38852,105.00204 C 135.06371,105.00204 106.42729,133.63845 106.42729,168.96326 C 106.42729,204.28807 135.06371,232.92448 170.38852,232.92448 C 205.71333,232.92448 234.34975,204.28807 234.34975,168.96326 L 234.34975,168.96326 z "
             transform="matrix(1.020492,0.000000,0.000000,1.020492,36.61520,251.5961)"
             style="fill-rule:evenodd;stroke-width:3.0000000pt;"
             id="path674" />
          <path
             d="M 234.34975,168.96326 C 234.34975,133.63845 205.71333,105.00204 170.38852,105.00204 C 135.06371,105.00204 106.42729,133.63845 106.42729,168.96326 C 106.42729,204.28807 135.06371,232.92448 170.38852,232.92448 C 205.71333,232.92448 234.34975,204.28807 234.34975,168.96326 L 234.34975,168.96326 z "
             transform="matrix(1.020492,0.000000,0.000000,1.020492,85.89684,251.5961)"
             style="fill-rule:evenodd;stroke-width:3.0000000pt;"
             id="path679" />
          <path
             d="M 234.34975,168.96326 C 234.34975,133.63845 205.71333,105.00204 170.38852,105.00204 C 135.06371,105.00204 106.42729,133.63845 106.42729,168.96326 C 106.42729,204.28807 135.06371,232.92448 170.38852,232.92448 C 205.71333,232.92448 234.34975,204.28807 234.34975,168.96326 L 234.34975,168.96326 z "
             transform="matrix(1.020492,0.000000,0.000000,1.020492,84.32401,165.0911)"
             style="fill-rule:evenodd;stroke-width:3.0000000pt;"
             id="path653" />
          <path
             d="M 234.34975,168.96326 C 234.34975,133.63845 205.71333,105.00204 170.38852,105.00204 C 135.06371,105.00204 106.42729,133.63845 106.42729,168.96326 C 106.42729,204.28807 135.06371,232.92448 170.38852,232.92448 C 205.71333,232.92448 234.34975,204.28807 234.34975,168.96326 L 234.34975,168.96326 z "
             transform="matrix(1.020492,0.000000,0.000000,1.020492,60.73170,122.6250)"
             style="fill-rule:evenodd;stroke-width:3.0000000pt;"
             id="path638" />
        </g>
        <g
           id="g1128">
          <path
             d="M 234.34975,168.96326 C 234.34975,133.63845 205.71333,105.00204 170.38852,105.00204 C 135.06371,105.00204 106.42729,133.63845 106.42729,168.96326 C 106.42729,204.28807 135.06371,232.92448 170.38852,232.92448 C 205.71333,232.92448 234.34975,204.28807 234.34975,168.96326 L 234.34975,168.96326 z "
             transform="matrix(1.020492,0.000000,0.000000,1.020492,13.02299,209.1300)"
             style="fill-rule:evenodd;stroke-width:3.0000000pt;"
             id="path659" />
          <path
             d="M 234.34975,168.96326 C 234.34975,133.63845 205.71333,105.00204 170.38852,105.00204 C 135.06371,105.00204 106.42729,133.63845 106.42729,168.96326 C 106.42729,204.28807 135.06371,232.92448 170.38852,232.92448 C 205.71333,232.92448 234.34975,204.28807 234.34975,168.96326 L 234.34975,168.96326 z "
             transform="matrix(1.020492,0.000000,0.000000,1.020492,62.30450,209.1300)"
             style="fill-rule:evenodd;stroke-width:3.0000000pt;"
             id="path664" />
        </g>
      </g>
      <path
         d="M 234.34975,168.96326 C 234.34975,133.63845 205.71333,105.00204 170.38852,105.00204 C 135.06371,105.00204 106.42729,133.63845 106.42729,168.96326 C 106.42729,204.28807 135.06371,232.92448 170.38852,232.92448 C 205.71333,232.92448 234.34975,204.28807 234.34975,168.96326 L 234.34975,168.96326 z "
         transform="matrix(1.020492,0.000000,0.000000,1.020492,35.04240,165.0911)"
         style="fill-rule:evenodd;stroke-width:3.0000000pt;"
         id="path648" />
    </g>
    <g
       style="fill:#f5ec11;"
       id="g1143">
      <path
         d="M 205.51471,168.17682 C 205.52161,146.60065 188.03261,129.10605 166.45645,129.10605 C 144.88029,129.10605 127.39129,146.60065 127.39819,168.17682 C 127.39129,189.75299 144.88029,207.24759 166.45645,207.24759 C 188.03261,207.24759 205.52161,189.75299 205.51471,168.17682 z "
         transform="matrix(1.040269,0.000000,0.000000,1.040268,86.61743,249.0727)"
         style="fill-rule:evenodd;stroke-width:3.0000000pt;"
         id="path680" />
      <path
         d="M 205.51471,168.17682 C 205.52161,146.60065 188.03261,129.10605 166.45645,129.10605 C 144.88029,129.10605 127.39129,146.60065 127.39819,168.17682 C 127.39129,189.75299 144.88029,207.24759 166.45645,207.24759 C 188.03261,207.24759 205.52161,189.75299 205.51471,168.17682 z "
         transform="matrix(1.040269,0.000000,0.000000,1.040268,12.17079,120.1017)"
         style="fill-rule:evenodd;stroke-width:3.0000000pt;"
         id="path634" />
      <path
         d="M 205.51471,168.17682 C 205.52161,146.60065 188.03261,129.10605 166.45645,129.10605 C 144.88029,129.10605 127.39129,146.60065 127.39819,168.17682 C 127.39129,189.75299 144.88029,207.24759 166.45645,207.24759 C 188.03261,207.24759 205.52161,189.75299 205.51471,168.17682 z "
         transform="matrix(1.040269,0.000000,0.000000,1.040268,-13.51860,162.5677)"
         style="fill-rule:evenodd;stroke-width:3.0000000pt;"
         id="path644" />
      <path
         d="M 205.51471,168.17682 C 205.52161,146.60065 188.03261,129.10605 166.45645,129.10605 C 144.88029,129.10605 127.39129,146.60065 127.39819,168.17682 C 127.39129,189.75299 144.88029,207.24759 166.45645,207.24759 C 188.03261,207.24759 205.52161,189.75299 205.51471,168.17682 z "
         transform="matrix(1.040269,0.000000,0.000000,1.040268,-11.94580,249.0727)"
         style="fill-rule:evenodd;stroke-width:3.0000000pt;"
         id="path670" />
      <path
         d="M 205.51471,168.17682 C 205.52161,146.60065 188.03261,129.10605 166.45645,129.10605 C 144.88029,129.10605 127.39129,146.60065 127.39819,168.17682 C 127.39129,189.75299 144.88029,207.24759 166.45645,207.24759 C 188.03261,207.24759 205.52161,189.75299 205.51471,168.17682 z "
         transform="matrix(1.040269,0.000000,0.000000,1.040268,37.33580,249.0727)"
         style="fill-rule:evenodd;stroke-width:3.0000000pt;"
         id="path675" />
      <path
         d="M 205.51471,168.17682 C 205.52161,146.60065 188.03261,129.10605 166.45645,129.10605 C 144.88029,129.10605 127.39129,146.60065 127.39819,168.17682 C 127.39129,189.75299 144.88029,207.24759 166.45645,207.24759 C 188.03261,207.24759 205.52161,189.75299 205.51471,168.17682 z "
         transform="matrix(1.040269,0.000000,0.000000,1.040268,85.04461,162.5677)"
         style="fill-rule:evenodd;stroke-width:3.0000000pt;"
         id="path654" />
      <path
         d="M 205.51471,168.17682 C 205.52161,146.60065 188.03261,129.10605 166.45645,129.10605 C 144.88029,129.10605 127.39129,146.60065 127.39819,168.17682 C 127.39129,189.75299 144.88029,207.24759 166.45645,207.24759 C 188.03261,207.24759 205.52161,189.75299 205.51471,168.17682 z "
         transform="matrix(1.040269,0.000000,0.000000,1.040268,61.45229,120.1017)"
         style="fill-rule:evenodd;stroke-width:3.0000000pt;"
         id="path639" />
      <path
         d="M 205.51471,168.17682 C 205.52161,146.60065 188.03261,129.10605 166.45645,129.10605 C 144.88029,129.10605 127.39129,146.60065 127.39819,168.17682 C 127.39129,189.75299 144.88029,207.24759 166.45645,207.24759 C 188.03261,207.24759 205.52161,189.75299 205.51471,168.17682 z "
         transform="matrix(1.040269,0.000000,0.000000,1.040268,13.74359,206.6066)"
         style="fill-rule:evenodd;stroke-width:3.0000000pt;"
         id="path660" />
      <path
         d="M 205.51471,168.17682 C 205.52161,146.60065 188.03261,129.10605 166.45645,129.10605 C 144.88029,129.10605 127.39129,146.60065 127.39819,168.17682 C 127.39129,189.75299 144.88029,207.24759 166.45645,207.24759 C 188.03261,207.24759 205.52161,189.75299 205.51471,168.17682 z "
         transform="matrix(1.040269,0.000000,0.000000,1.040268,63.02509,206.6066)"
         style="fill-rule:evenodd;stroke-width:3.0000000pt;"
         id="path665" />
      <path
         d="M 205.51471,168.17682 C 205.52161,146.60065 188.03261,129.10605 166.45645,129.10605 C 144.88029,129.10605 127.39129,146.60065 127.39819,168.17682 C 127.39129,189.75299 144.88029,207.24759 166.45645,207.24759 C 188.03261,207.24759 205.52161,189.75299 205.51471,168.17682 z "
         transform="matrix(1.040269,0.000000,0.000000,1.040268,35.76300,162.5677)"
         style="fill-rule:evenodd;stroke-width:3.0000000pt;"
         id="path649" />
    </g>
    <g
       style="fill:#f6f79d;"
       id="g874">
      <path
         d="M 193.45650,167.65253 C 193.46332,153.60465 182.07718,142.21297 168.02930,142.21297 C 153.98141,142.21297 142.59527,153.60465 142.60209,167.65253 C 142.59527,181.70041 153.98141,193.09209 168.02930,193.09209 C 182.07718,193.09209 193.46332,181.70041 193.45650,167.65253 L 193.45650,167.65253 z "
         transform="matrix(0.969071,0.000000,0.000000,0.969072,22.49800,132.5833)"
         style="fill-rule:evenodd;stroke-width:3.0000000pt;"
         id="path635" />
      <path
         d="M 193.45650,167.65253 C 193.46332,153.60465 182.07718,142.21297 168.02930,142.21297 C 153.98141,142.21297 142.59527,153.60465 142.60209,167.65253 C 142.59527,181.70041 153.98141,193.09209 168.02930,193.09209 C 182.07718,193.09209 193.46332,181.70041 193.45650,167.65253 L 193.45650,167.65253 z "
         transform="matrix(0.969071,0.000000,0.000000,0.969072,-3.191391,175.0494)"
         style="fill-rule:evenodd;stroke-width:3.0000000pt;"
         id="path645" />
      <path
         d="M 193.45650,167.65253 C 193.46332,153.60465 182.07718,142.21297 168.02930,142.21297 C 153.98141,142.21297 142.59527,153.60465 142.60209,167.65253 C 142.59527,181.70041 153.98141,193.09209 168.02930,193.09209 C 182.07718,193.09209 193.46332,181.70041 193.45650,167.65253 L 193.45650,167.65253 z "
         transform="matrix(0.969071,0.000000,0.000000,0.969072,-1.618591,261.5544)"
         style="fill-rule:evenodd;stroke-width:3.0000000pt;"
         id="path671" />
      <path
         d="M 193.45650,167.65253 C 193.46332,153.60465 182.07718,142.21297 168.02930,142.21297 C 153.98141,142.21297 142.59527,153.60465 142.60209,167.65253 C 142.59527,181.70041 153.98141,193.09209 168.02930,193.09209 C 182.07718,193.09209 193.46332,181.70041 193.45650,167.65253 L 193.45650,167.65253 z "
         transform="matrix(0.969071,0.000000,0.000000,0.969072,47.66301,261.5544)"
         style="fill-rule:evenodd;stroke-width:3.0000000pt;"
         id="path676" />
      <path
         d="M 193.45650,167.65253 C 193.46332,153.60465 182.07718,142.21297 168.02930,142.21297 C 153.98141,142.21297 142.59527,153.60465 142.60209,167.65253 C 142.59527,181.70041 153.98141,193.09209 168.02930,193.09209 C 182.07718,193.09209 193.46332,181.70041 193.45650,167.65253 L 193.45650,167.65253 z "
         transform="matrix(0.969071,0.000000,0.000000,0.969072,96.94464,261.5544)"
         style="fill-rule:evenodd;stroke-width:3.0000000pt;"
         id="path681" />
      <path
         d="M 193.45650,167.65253 C 193.46332,153.60465 182.07718,142.21297 168.02930,142.21297 C 153.98141,142.21297 142.59527,153.60465 142.60209,167.65253 C 142.59527,181.70041 153.98141,193.09209 168.02930,193.09209 C 182.07718,193.09209 193.46332,181.70041 193.45650,167.65253 L 193.45650,167.65253 z "
         transform="matrix(0.969071,0.000000,0.000000,0.969072,95.37182,175.0494)"
         style="fill-rule:evenodd;stroke-width:3.0000000pt;"
         id="path655" />
      <path
         d="M 193.45650,167.65253 C 193.46332,153.60465 182.07718,142.21297 168.02930,142.21297 C 153.98141,142.21297 142.59527,153.60465 142.60209,167.65253 C 142.59527,181.70041 153.98141,193.09209 168.02930,193.09209 C 182.07718,193.09209 193.46332,181.70041 193.45650,167.65253 L 193.45650,167.65253 z "
         transform="matrix(0.969071,0.000000,0.000000,0.969072,71.77950,132.5833)"
         style="fill-rule:evenodd;stroke-width:3.0000000pt;"
         id="path640" />
      <path
         d="M 193.45650,167.65253 C 193.46332,153.60465 182.07718,142.21297 168.02930,142.21297 C 153.98141,142.21297 142.59527,153.60465 142.60209,167.65253 C 142.59527,181.70041 153.98141,193.09209 168.02930,193.09209 C 182.07718,193.09209 193.46332,181.70041 193.45650,167.65253 L 193.45650,167.65253 z "
         transform="matrix(0.969071,0.000000,0.000000,0.969072,46.09021,175.0494)"
         style="fill-rule:evenodd;stroke-width:3.0000000pt;"
         id="path650" />
      <path
         d="M 193.45650,167.65253 C 193.46332,153.60465 182.07718,142.21297 168.02930,142.21297 C 153.98141,142.21297 142.59527,153.60465 142.60209,167.65253 C 142.59527,181.70041 153.98141,193.09209 168.02930,193.09209 C 182.07718,193.09209 193.46332,181.70041 193.45650,167.65253 L 193.45650,167.65253 z "
         transform="matrix(0.969071,0.000000,0.000000,0.969072,24.07080,219.0883)"
         style="fill-rule:evenodd;stroke-width:3.0000000pt;"
         id="path661" />
      <path
         d="M 193.45650,167.65253 C 193.46332,153.60465 182.07718,142.21297 168.02930,142.21297 C 153.98141,142.21297 142.59527,153.60465 142.60209,167.65253 C 142.59527,181.70041 153.98141,193.09209 168.02930,193.09209 C 182.07718,193.09209 193.46332,181.70041 193.45650,167.65253 L 193.45650,167.65253 z "
         transform="matrix(0.969071,0.000000,0.000000,0.969072,73.35230,219.0883)"
         style="fill-rule:evenodd;stroke-width:3.0000000pt;"
         id="path666" />
    </g>
    <path
       style="fill:#ff0000;fill-opacity:0.75000000;fill-rule:evenodd;stroke-width:3.0000000pt;"
       id="path621" />
    <path
       transform="translate(1.572819,86.50494)"
       style="fill:#ff0000;fill-opacity:0.75000000;fill-rule:evenodd;stroke-width:3.0000000pt;"
       id="path657" />
    <g
       style="fill:#e8e8e6;"
       id="g885">
      <path
         d="M 177.72828,166.34186 C 177.72828,158.23454 171.15600,151.66226 163.04868,151.66226 C 154.94135,151.66226 148.36907,158.23454 148.36907,166.34186 C 148.36907,174.44918 154.94135,181.02147 163.04868,181.02147 C 171.15600,181.02147 177.72828,174.44918 177.72828,166.34186 L 177.72828,166.34186 z "
         transform="matrix(0.964290,0.000000,0.000000,0.964290,28.10410,134.6488)"
         style="fill-rule:evenodd;stroke-width:3.0000000pt;"
         id="path636" />
      <path
         d="M 177.72828,166.34186 C 177.72828,158.23454 171.15600,151.66226 163.04868,151.66226 C 154.94135,151.66226 148.36907,158.23454 148.36907,166.34186 C 148.36907,174.44918 154.94135,181.02147 163.04868,181.02147 C 171.15600,181.02147 177.72828,174.44918 177.72828,166.34186 L 177.72828,166.34186 z "
         transform="matrix(0.964290,0.000000,0.000000,0.964290,2.414703,177.1149)"
         style="fill-rule:evenodd;stroke-width:3.0000000pt;"
         id="path646" />
      <path
         d="M 177.72828,166.34186 C 177.72828,158.23454 171.15600,151.66226 163.04868,151.66226 C 154.94135,151.66226 148.36907,158.23454 148.36907,166.34186 C 148.36907,174.44918 154.94135,181.02147 163.04868,181.02147 C 171.15600,181.02147 177.72828,174.44918 177.72828,166.34186 L 177.72828,166.34186 z "
         transform="matrix(0.964290,0.000000,0.000000,0.964290,3.987503,263.6199)"
         style="fill-rule:evenodd;stroke-width:3.0000000pt;"
         id="path672" />
      <path
         d="M 177.72828,166.34186 C 177.72828,158.23454 171.15600,151.66226 163.04868,151.66226 C 154.94135,151.66226 148.36907,158.23454 148.36907,166.34186 C 148.36907,174.44918 154.94135,181.02147 163.04868,181.02147 C 171.15600,181.02147 177.72828,174.44918 177.72828,166.34186 L 177.72828,166.34186 z "
         transform="matrix(0.964290,0.000000,0.000000,0.964290,53.26910,263.6199)"
         style="fill-rule:evenodd;stroke-width:3.0000000pt;"
         id="path677" />
      <path
         d="M 177.72828,166.34186 C 177.72828,158.23454 171.15600,151.66226 163.04868,151.66226 C 154.94135,151.66226 148.36907,158.23454 148.36907,166.34186 C 148.36907,174.44918 154.94135,181.02147 163.04868,181.02147 C 171.15600,181.02147 177.72828,174.44918 177.72828,166.34186 L 177.72828,166.34186 z "
         transform="matrix(0.964290,0.000000,0.000000,0.964290,102.5507,263.6199)"
         style="fill-rule:evenodd;stroke-width:3.0000000pt;"
         id="path682" />
      <path
         d="M 177.72828,166.34186 C 177.72828,158.23454 171.15600,151.66226 163.04868,151.66226 C 154.94135,151.66226 148.36907,158.23454 148.36907,166.34186 C 148.36907,174.44918 154.94135,181.02147 163.04868,181.02147 C 171.15600,181.02147 177.72828,174.44918 177.72828,166.34186 L 177.72828,166.34186 z "
         transform="matrix(0.964290,0.000000,0.000000,0.964290,100.9779,177.1149)"
         style="fill-rule:evenodd;stroke-width:3.0000000pt;"
         id="path656" />
      <path
         d="M 177.72828,166.34186 C 177.72828,158.23454 171.15600,151.66226 163.04868,151.66226 C 154.94135,151.66226 148.36907,158.23454 148.36907,166.34186 C 148.36907,174.44918 154.94135,181.02147 163.04868,181.02147 C 171.15600,181.02147 177.72828,174.44918 177.72828,166.34186 L 177.72828,166.34186 z "
         transform="matrix(0.964290,0.000000,0.000000,0.964290,77.38560,134.6488)"
         style="fill-rule:evenodd;stroke-width:3.0000000pt;"
         id="path641" />
      <path
         d="M 177.72828,166.34186 C 177.72828,158.23454 171.15600,151.66226 163.04868,151.66226 C 154.94135,151.66226 148.36907,158.23454 148.36907,166.34186 C 148.36907,174.44918 154.94135,181.02147 163.04868,181.02147 C 171.15600,181.02147 177.72828,174.44918 177.72828,166.34186 L 177.72828,166.34186 z "
         transform="matrix(0.964290,0.000000,0.000000,0.964290,51.69630,177.1149)"
         style="fill-rule:evenodd;stroke-width:3.0000000pt;"
         id="path651" />
      <path
         d="M 177.72828,166.34186 C 177.72828,158.23454 171.15600,151.66226 163.04868,151.66226 C 154.94135,151.66226 148.36907,158.23454 148.36907,166.34186 C 148.36907,174.44918 154.94135,181.02147 163.04868,181.02147 C 171.15600,181.02147 177.72828,174.44918 177.72828,166.34186 L 177.72828,166.34186 z "
         transform="matrix(0.964290,0.000000,0.000000,0.964290,29.67690,221.1538)"
         style="fill-rule:evenodd;stroke-width:3.0000000pt;"
         id="path662" />
      <path
         d="M 177.72828,166.34186 C 177.72828,158.23454 171.15600,151.66226 163.04868,151.66226 C 154.94135,151.66226 148.36907,158.23454 148.36907,166.34186 C 148.36907,174.44918 154.94135,181.02147 163.04868,181.02147 C 171.15600,181.02147 177.72828,174.44918 177.72828,166.34186 L 177.72828,166.34186 z "
         transform="matrix(0.964290,0.000000,0.000000,0.964290,78.95840,221.1538)"
         style="fill-rule:evenodd;stroke-width:3.0000000pt;"
         id="path667" />
    </g>
  </g>
<metadata>
<rdf:RDF xmlns="http://web.resource.org/cc/"
xmlns:dc="http://purl.org/dc/elements/1.1/"
xmlns:rdf="http://www.w3.org/1999/02/22-rdf-syntax-ns#">
<Work rdf:about="">
<dc:title>leningrad 3</dc:title>
<dc:date>2004</dc:date>
<dc:description>graphic art abstract colour nuclear svg eps pdf</dc:description>
<dc:creator><Agent>
<dc:title>Rhea Myers</dc:title>
</Agent></dc:creator>
<dc:rights><Agent>
<dc:title>Rhea Myers</dc:title>
</Agent></dc:rights>
<dc:type rdf:resource="http://purl.org/dc/dcmitype/StillImage" />
<dc:source rdf:resource="http://www.Rhea Myers.org/art/1968"/>
<license rdf:resource="http://creativecommons.org/licenses/by-sa/2.0/" />
</Work>
<License rdf:about="http://creativecommons.org/licenses/by-sa/2.0/">
<permits rdf:resource="http://web.resource.org/cc/Reproduction" />
<permits rdf:resource="http://web.resource.org/cc/Distribution" />
<requires rdf:resource="http://web.resource.org/cc/Notice" />
<requires rdf:resource="http://web.resource.org/cc/Attribution" />
<permits rdf:resource="http://web.resource.org/cc/DerivativeWorks" />
<requires rdf:resource="http://web.resource.org/cc/ShareAlike" />
</License>
</rdf:RDF>
</metadata>
</svg>


