<?xml version="1.0" encoding="UTF-8" standalone="no"?>
<!DOCTYPE svg PUBLIC "-//W3C//DTD SVG 20010904//EN"
"http://www.w3.org/TR/2001/REC-SVG-20010904/DTD/svg10.dtd">
<!-- Created with Inkscape (http://www.inkscape.org/) -->
<svg
   version="1.0"
   x="0.0000000"
   y="0.0000000"
   width="255.07500pt"
   height="343.40000pt"
   id="svg594"
   sodipodi:version="0.32"
   inkscape:version="0.38.1"
   sodipodi:docname="leningrad.svg"
   sodipodi:docbase="/Users/Rhea Myers/Documents/images/1968/final"
   xmlns="http://www.w3.org/2000/svg"
   xmlns:inkscape="http://www.inkscape.org/namespaces/inkscape"
   xmlns:sodipodi="http://sodipodi.sourceforge.net/DTD/sodipodi-0.dtd"
   xmlns:xlink="http://www.w3.org/1999/xlink">
  <sodipodi:namedview
     id="base"
     pagecolor="#ffffff"
     bordercolor="#666666"
     borderopacity="1.0"
     inkscape:pageopacity="0.0"
     inkscape:pageshadow="2"
     inkscape:zoom="21.837027"
     inkscape:cx="254.51105"
     inkscape:cy="6.1670755"
     inkscape:window-width="640"
     inkscape:window-height="501"
     borderlayer="top"
     inkscape:window-x="33"
     inkscape:window-y="102" />
  <defs
     id="defs596" />
  <g
     id="g832"
     transform="translate(-9.057109,-18.32948)">
    <rect
       width="318.77408"
       height="429.08972"
       x="9.1295700"
       y="18.438583"
       style="font-size:12.000000;fill:#ff1515;fill-rule:evenodd;stroke-width:3.0000000pt;"
       id="rect604" />
    <path
       d="M 377.35547,202.17117 C 377.37524,101.10468 295.45020,19.163612 194.38371,19.163612 C 93.317224,19.163612 11.392189,101.10468 11.411957,202.17117 C 11.392189,303.23766 93.317224,385.17873 194.38371,385.17873 C 295.45020,385.17873 377.37524,303.23766 377.35547,202.17117 L 377.35547,202.17117 z "
       transform="translate(-19.78073,4.564715)"
       style="fill:#6d0061;fill-rule:evenodd;stroke-width:3.0000000pt;"
       id="path603" />
    <path
       d="M 292.14617,224.61469 C 292.14617,158.64693 238.66874,105.16950 172.70099,105.16950 C 106.73324,105.16950 53.255806,158.64693 53.255806,224.61469 C 53.255806,290.58245 106.73324,344.05988 172.70099,344.05988 C 238.66874,344.05988 292.14617,290.58245 292.14617,224.61469 L 292.14617,224.61469 z "
       transform="translate(1.901989,-17.87883)"
       style="fill:#9e0045;fill-rule:evenodd;stroke-width:3.0000000pt;"
       id="path602" />
    <path
       d="M 194.00336,209.01834 C 194.00896,199.56040 186.34335,191.89025 176.88540,191.89025 C 167.42746,191.89025 159.76185,199.56040 159.76745,209.01834 C 159.76185,218.47628 167.42746,226.14643 176.88540,226.14643 C 186.34335,226.14643 194.00896,218.47628 194.00336,209.01834 L 194.00336,209.01834 z "
       transform="translate(-2.282431,-2.282516)"
       style="fill:#ff0000;fill-opacity:0.75000000;fill-rule:evenodd;stroke-width:3.0000000pt;"
       id="path599" />
    <path
       d="M 240.41199,207.11636 C 240.41199,168.03991 208.73427,136.36218 169.65782,136.36218 C 130.58138,136.36218 98.903655,168.03991 98.903656,207.11636 C 98.903655,246.19281 130.58138,277.87054 169.65782,277.87054 C 208.73427,277.87054 240.41199,246.19281 240.41199,207.11636 L 240.41199,207.11636 z "
       transform="translate(4.945159,-0.380508)"
       style="fill:#ff0096;fill-rule:evenodd;stroke-width:3.0000000pt;"
       id="path601" />
    <path
       d="M 213.02325,208.25757 C 213.03313,186.19131 195.14765,168.29783 173.08139,168.29783 C 151.01513,168.29783 133.12965,186.19131 133.13953,208.25757 C 133.12965,230.32383 151.01513,248.21731 173.08139,248.21731 C 195.14765,248.21731 213.03313,230.32383 213.02325,208.25757 L 213.02325,208.25757 z "
       transform="translate(1.521590,-1.521713)"
       style="fill:#ff57aa;fill-rule:evenodd;stroke-width:3.0000000pt;"
       id="path600" />
    <path
       d="M -41.082800,-11.993400 L -41.082800,464.26600 L 378.87700,464.26600 L 378.87700,-11.993400 L -41.082800,-11.993400 z M 9.1292500,18.438400 L 9.1292500,447.52800 L 327.90300,447.52800 L 327.90300,18.438400 L 9.1292500,18.438400 z "
       style="font-size:12.000000;fill:#ffffff;fill-rule:evenodd;stroke-width:3.0000000pt;"
       id="path609" />
  </g>
<metadata>
<rdf:RDF xmlns="http://web.resource.org/cc/"
xmlns:dc="http://purl.org/dc/elements/1.1/"
xmlns:rdf="http://www.w3.org/1999/02/22-rdf-syntax-ns#">
<Work rdf:about="">
<dc:title>leningrad</dc:title>
<dc:date>2004</dc:date>
<dc:description>graphic art abstract colour nuclear svg eps pdf</dc:description>
<dc:creator><Agent>
<dc:title>Rhea Myers</dc:title>
</Agent></dc:creator>
<dc:rights><Agent>
<dc:title>Rhea Myers</dc:title>
</Agent></dc:rights>
<dc:type rdf:resource="http://purl.org/dc/dcmitype/StillImage" />
<dc:source rdf:resource="http://www.Rhea Myers.org/art/1968"/>
<license rdf:resource="http://creativecommons.org/licenses/by-sa/2.0/" />
</Work>
<License rdf:about="http://creativecommons.org/licenses/by-sa/2.0/">
<permits rdf:resource="http://web.resource.org/cc/Reproduction" />
<permits rdf:resource="http://web.resource.org/cc/Distribution" />
<requires rdf:resource="http://web.resource.org/cc/Notice" />
<requires rdf:resource="http://web.resource.org/cc/Attribution" />
<permits rdf:resource="http://web.resource.org/cc/DerivativeWorks" />
<requires rdf:resource="http://web.resource.org/cc/ShareAlike" />
</License>
</rdf:RDF>
</metadata>
</svg>


