<?xml version="1.0" encoding="UTF-8" standalone="no"?>
<!DOCTYPE svg PUBLIC "-//W3C//DTD SVG 20010904//EN"
"http://www.w3.org/TR/2001/REC-SVG-20010904/DTD/svg10.dtd">
<!-- Created with Inkscape (http://www.inkscape.org/) -->
<svg
   version="1.0"
   x="0.0000000"
   y="0.0000000"
   width="554.00000pt"
   height="352.00000pt"
   id="svg559"
   xmlns="http://www.w3.org/2000/svg"
   xmlns:sodipodi="http://sodipodi.sourceforge.net/DTD/sodipodi-0.dtd"
   xmlns:inkscape="http://www.inkscape.org/namespaces/inkscape"
   xmlns:xlink="http://www.w3.org/1999/xlink"
   sodipodi:version="0.32"
   inkscape:version="0.38.1"
   sodipodi:docname="soviet.svg"
   sodipodi:docbase="/Users/Rhea Myers/Documents/images/1968/Final">
  <sodipodi:namedview
     id="base"
     pagecolor="#ffffff"
     bordercolor="#666666"
     borderopacity="1.0"
     inkscape:pageopacity="0.0"
     inkscape:pageshadow="2"
     inkscape:zoom="0.87470140"
     inkscape:cx="269.48692"
     inkscape:cy="184.26458"
     inkscape:window-width="640"
     inkscape:window-height="501"
     inkscape:window-x="93"
     inkscape:window-y="128" />
  <defs
     id="defs561" />
  <g
     id="g976"
     transform="translate(-24.90935,-41.10860)">
    <rect
       width="285.32550"
       height="180.78160"
       x="24.909349"
       y="12.962350"
       transform="matrix(2.424895,0.000000,0.000000,2.424895,-35.49321,9.676270)"
       style="font-size:12.000000;fill:#80000b;fill-rule:evenodd;"
       id="rect585" />
    <g
       transform="matrix(2.424895,0.000000,0.000000,2.424895,-35.49321,9.676270)"
       style="fill:#ffffff;"
       id="g574">
      <path
         d="M 62.273400,126.18680 C 62.275180,115.97099 57.627867,107.68775 51.894501,107.68775 C 46.161134,107.68775 41.513821,115.97099 41.515601,126.18680 C 41.513821,136.40261 46.161134,144.68585 51.894501,144.68585 C 57.627867,144.68585 62.275180,136.40261 62.273400,126.18680 L 62.273400,126.18680 z "
         transform="translate(-0.754828,-1.132324)"
         style="fill-rule:evenodd;stroke-width:1.0000000pt;"
         id="path564" />
      <path
         d="M 62.273400,126.18680 C 62.275180,115.97099 57.627867,107.68775 51.894501,107.68775 C 46.161134,107.68775 41.513821,115.97099 41.515601,126.18680 C 41.513821,136.40261 46.161134,144.68585 51.894501,144.68585 C 57.627867,144.68585 62.275180,136.40261 62.273400,126.18680 L 62.273400,126.18680 z "
         transform="translate(-15.09658,-23.77722)"
         style="fill-rule:evenodd;stroke-width:1.0000000pt;"
         id="path565" />
      <path
         d="M 62.273400,126.18680 C 62.275180,115.97099 57.627867,107.68775 51.894501,107.68775 C 46.161134,107.68775 41.513821,115.97099 41.515601,126.18680 C 41.513821,136.40261 46.161134,144.68585 51.894501,144.68585 C 57.627867,144.68585 62.275180,136.40261 62.273400,126.18680 L 62.273400,126.18680 z "
         transform="matrix(0.983632,0.180189,-0.180189,0.983632,143.6046,-20.49524)"
         style="fill-rule:evenodd;stroke-width:1.0000000pt;"
         id="path566" />
      <path
         d="M 62.273400,126.18680 C 62.275180,115.97099 57.627867,107.68775 51.894501,107.68775 C 46.161134,107.68775 41.513821,115.97099 41.515601,126.18680 C 41.513821,136.40261 46.161134,144.68585 51.894501,144.68585 C 57.627867,144.68585 62.275180,136.40261 62.273400,126.18680 L 62.273400,126.18680 z "
         transform="matrix(0.895236,0.445591,-0.445591,0.895236,234.8977,-51.41992)"
         style="fill-rule:evenodd;stroke-width:1.0000000pt;"
         id="path567" />
      <path
         d="M 62.273400,126.18680 C 62.275180,115.97099 57.627867,107.68775 51.894501,107.68775 C 46.161134,107.68775 41.513821,115.97099 41.515601,126.18680 C 41.513821,136.40261 46.161134,144.68585 51.894501,144.68585 C 57.627867,144.68585 62.275180,136.40261 62.273400,126.18680 L 62.273400,126.18680 z "
         transform="matrix(0.940375,0.340141,-0.340141,0.940375,158.4848,24.59448)"
         style="fill-rule:evenodd;stroke-width:1.0000000pt;"
         id="path568" />
      <path
         d="M 62.273400,126.18680 C 62.275180,115.97099 57.627867,107.68775 51.894501,107.68775 C 46.161134,107.68775 41.513821,115.97099 41.515601,126.18680 C 41.513821,136.40261 46.161134,144.68585 51.894501,144.68585 C 57.627867,144.68585 62.275180,136.40261 62.273400,126.18680 L 62.273400,126.18680 z "
         transform="matrix(0.950228,0.311557,-0.311557,0.950228,270.2331,-61.59351)"
         style="fill-rule:evenodd;stroke-width:1.0000000pt;"
         id="path569" />
      <path
         d="M 62.273400,126.18680 C 62.275180,115.97099 57.627867,107.68775 51.894501,107.68775 C 46.161134,107.68775 41.513821,115.97099 41.515601,126.18680 C 41.513821,136.40261 46.161134,144.68585 51.894501,144.68585 C 57.627867,144.68585 62.275180,136.40261 62.273400,126.18680 L 62.273400,126.18680 z "
         transform="matrix(0.940375,0.340141,-0.340141,0.940375,176.9781,22.32996)"
         style="fill-rule:evenodd;stroke-width:1.0000000pt;"
         id="path570" />
      <path
         d="M 62.273400,126.18680 C 62.275180,115.97099 57.627867,107.68775 51.894501,107.68775 C 46.161134,107.68775 41.513821,115.97099 41.515601,126.18680 C 41.513821,136.40261 46.161134,144.68585 51.894501,144.68585 C 57.627867,144.68585 62.275180,136.40261 62.273400,126.18680 L 62.273400,126.18680 z "
         transform="matrix(0.940375,0.340141,-0.340141,0.940375,189.0554,22.70740)"
         style="fill-rule:evenodd;stroke-width:1.0000000pt;"
         id="path571" />
      <path
         d="M 62.273400,126.18680 C 62.275180,115.97099 57.627867,107.68775 51.894501,107.68775 C 46.161134,107.68775 41.513821,115.97099 41.515601,126.18680 C 41.513821,136.40261 46.161134,144.68585 51.894501,144.68585 C 57.627867,144.68585 62.275180,136.40261 62.273400,126.18680 L 62.273400,126.18680 z "
         transform="matrix(0.940375,0.340141,-0.340141,0.940375,205.6615,22.70728)"
         style="fill-rule:evenodd;stroke-width:1.0000000pt;"
         id="path572" />
      <path
         d="M 62.273400,126.18680 C 62.275180,115.97099 57.627867,107.68775 51.894501,107.68775 C 46.161134,107.68775 41.513821,115.97099 41.515601,126.18680 C 41.513821,136.40261 46.161134,144.68585 51.894501,144.68585 C 57.627867,144.68585 62.275180,136.40261 62.273400,126.18680 L 62.273400,126.18680 z "
         transform="matrix(0.895236,0.445591,-0.445591,0.895236,222.8204,-60.85535)"
         style="fill-rule:evenodd;stroke-width:1.0000000pt;"
         id="path573" />
    </g>
  </g>
<metadata>
<rdf:RDF xmlns="http://web.resource.org/cc/"
xmlns:dc="http://purl.org/dc/elements/1.1/"
xmlns:rdf="http://www.w3.org/1999/02/22-rdf-syntax-ns#">
<Work rdf:about="">
<dc:title>soviet</dc:title>
<dc:date>2004</dc:date>
<dc:description>graphic art abstract colour nuclear svg eps pdf</dc:description>
<dc:creator><Agent>
<dc:title>Rhea Myers</dc:title>
</Agent></dc:creator>
<dc:rights><Agent>
<dc:title>Rhea Myers</dc:title>
</Agent></dc:rights>
<dc:type rdf:resource="http://purl.org/dc/dcmitype/StillImage" />
<dc:source rdf:resource="http://www.Rhea Myers.org/art/1968"/>
<license rdf:resource="http://creativecommons.org/licenses/by-sa/2.0/" />
</Work>
<License rdf:about="http://creativecommons.org/licenses/by-sa/2.0/">
<permits rdf:resource="http://web.resource.org/cc/Reproduction" />
<permits rdf:resource="http://web.resource.org/cc/Distribution" />
<requires rdf:resource="http://web.resource.org/cc/Notice" />
<requires rdf:resource="http://web.resource.org/cc/Attribution" />
<permits rdf:resource="http://web.resource.org/cc/DerivativeWorks" />
<requires rdf:resource="http://web.resource.org/cc/ShareAlike" />
</License>
</rdf:RDF>
</metadata>
</svg>


