<?xml version="1.0" encoding="UTF-8" standalone="no"?>
<!DOCTYPE svg PUBLIC "-//W3C//DTD SVG 20010904//EN"
"http://www.w3.org/TR/2001/REC-SVG-20010904/DTD/svg10.dtd">
<!-- Created with Inkscape (http://www.inkscape.org/) -->
<svg
   version="1.0"
   x="0.0000000"
   y="0.0000000"
   width="379.00000pt"
   height="312.00000pt"
   id="svg1"
   sodipodi:version="0.32"
   inkscape:version="0.38.1"
   sodipodi:docname="surf.svg"
   sodipodi:docbase="/Users/Rhea Myers/Documents/images/1968/Final"
   xmlns="http://www.w3.org/2000/svg"
   xmlns:inkscape="http://www.inkscape.org/namespaces/inkscape"
   xmlns:sodipodi="http://sodipodi.sourceforge.net/DTD/sodipodi-0.dtd"
   xmlns:xlink="http://www.w3.org/1999/xlink">
  <sodipodi:namedview
     id="base"
     pagecolor="#ffffff"
     bordercolor="#666666"
     borderopacity="1.0"
     inkscape:pageopacity="0.0"
     inkscape:pageshadow="2"
     inkscape:zoom="1.4459103"
     inkscape:cx="189.50000"
     inkscape:cy="148.37951"
     inkscape:window-width="675"
     inkscape:window-height="615"
     inkscape:window-x="86"
     inkscape:window-y="123" />
  <defs
     id="defs3" />
  <rect
     width="473.13330"
     height="389.57999"
     x="67.446663"
     y="5.4288330"
     style="font-size:12.000000;fill:#e22323;fill-rule:evenodd;stroke-width:3.0000000pt;"
     id="rect604"
     transform="translate(-67.44666,-5.428818)" />
  <g
     style="fill:#ecf711;"
     id="g801"
     transform="translate(-67.44666,-5.428818)">
    <path
       d="M 159.05334,153.40886 C 159.05999,133.38936 142.83284,117.15682 122.81334,117.15682 C 102.79383,117.15682 86.566683,133.38936 86.573334,153.40886 C 86.566683,173.42836 102.79383,189.66090 122.81334,189.66090 C 142.83284,189.66090 159.05999,173.42836 159.05334,153.40886 L 159.05334,153.40886 z "
       transform="matrix(1.027778,0.000000,0.000000,1.027778,181.8151,8.825237)"
       style="fill-rule:evenodd;stroke-width:3.0000000pt;"
       id="path581" />
    <g
       id="g761">
      <path
         d="M 159.05334,153.40886 C 159.05999,133.38936 142.83284,117.15682 122.81334,117.15682 C 102.79383,117.15682 86.566683,133.38936 86.573334,153.40886 C 86.566683,173.42836 102.79383,189.66090 122.81334,189.66090 C 142.83284,189.66090 159.05999,173.42836 159.05334,153.40886 L 159.05334,153.40886 z "
         transform="matrix(1.027778,0.000000,0.000000,1.027778,2.628536,-1.241333)"
         style="fill-rule:evenodd;stroke-width:3.0000000pt;"
         id="path564" />
      <path
         d="M 159.05334,153.40886 C 159.05999,133.38936 142.83284,117.15682 122.81334,117.15682 C 102.79383,117.15682 86.566683,133.38936 86.573334,153.40886 C 86.566683,173.42836 102.79383,189.66090 122.81334,189.66090 C 142.83284,189.66090 159.05999,173.42836 159.05334,153.40886 L 159.05334,153.40886 z "
         transform="matrix(1.027778,0.000000,0.000000,1.027778,158.6618,-98.88808)"
         style="fill-rule:evenodd;stroke-width:3.0000000pt;"
         id="path569" />
      <path
         d="M 159.05334,153.40886 C 159.05999,133.38936 142.83284,117.15682 122.81334,117.15682 C 102.79383,117.15682 86.566683,133.38936 86.573334,153.40886 C 86.566683,173.42836 102.79383,189.66090 122.81334,189.66090 C 142.83284,189.66090 159.05999,173.42836 159.05334,153.40886 L 159.05334,153.40886 z "
         transform="matrix(1.027778,0.000000,0.000000,1.027778,170.7418,-76.74131)"
         style="fill-rule:evenodd;stroke-width:3.0000000pt;"
         id="path572" />
      <path
         d="M 159.05334,153.40886 C 159.05999,133.38936 142.83284,117.15682 122.81334,117.15682 C 102.79383,117.15682 86.566683,133.38936 86.573334,153.40886 C 86.566683,173.42836 102.79383,189.66090 122.81334,189.66090 C 142.83284,189.66090 159.05999,173.42836 159.05334,153.40886 L 159.05334,153.40886 z "
         transform="matrix(1.027778,0.000000,0.000000,1.027778,15.71521,107.4788)"
         style="fill-rule:evenodd;stroke-width:3.0000000pt;"
         id="path575" />
      <path
         d="M 159.05334,153.40886 C 159.05999,133.38936 142.83284,117.15682 122.81334,117.15682 C 102.79383,117.15682 86.566683,133.38936 86.573334,153.40886 C 86.566683,173.42836 102.79383,189.66090 122.81334,189.66090 C 142.83284,189.66090 159.05999,173.42836 159.05334,153.40886 L 159.05334,153.40886 z "
         transform="matrix(1.027778,0.000000,0.000000,1.027778,8.668537,70.23195)"
         style="fill-rule:evenodd;stroke-width:3.0000000pt;"
         id="path578" />
      <path
         d="M 159.05334,153.40886 C 159.05999,133.38936 142.83284,117.15682 122.81334,117.15682 C 102.79383,117.15682 86.566683,133.38936 86.573334,153.40886 C 86.566683,173.42836 102.79383,189.66090 122.81334,189.66090 C 142.83284,189.66090 159.05999,173.42836 159.05334,153.40886 L 159.05334,153.40886 z "
         transform="matrix(1.027778,0.000000,0.000000,1.027778,297.5818,-52.58139)"
         style="fill-rule:evenodd;stroke-width:3.0000000pt;"
         id="path590" />
      <path
         d="M 159.05334,153.40886 C 159.05999,133.38936 142.83284,117.15682 122.81334,117.15682 C 102.79383,117.15682 86.566683,133.38936 86.573334,153.40886 C 86.566683,173.42836 102.79383,189.66090 122.81334,189.66090 C 142.83284,189.66090 159.05999,173.42836 159.05334,153.40886 L 159.05334,153.40886 z "
         transform="matrix(1.027778,0.000000,0.000000,1.027778,305.6353,-26.40799)"
         style="fill-rule:evenodd;stroke-width:3.0000000pt;"
         id="path593" />
      <path
         d="M 159.05334,153.40886 C 159.05999,133.38936 142.83284,117.15682 122.81334,117.15682 C 102.79383,117.15682 86.566683,133.38936 86.573334,153.40886 C 86.566683,173.42836 102.79383,189.66090 122.81334,189.66090 C 142.83284,189.66090 159.05999,173.42836 159.05334,153.40886 L 159.05334,153.40886 z "
         transform="matrix(1.027778,0.000000,0.000000,1.027778,347.9153,115.5320)"
         style="fill-rule:evenodd;stroke-width:3.0000000pt;"
         id="path596" />
      <path
         d="M 159.05334,153.40886 C 159.05999,133.38936 142.83284,117.15682 122.81334,117.15682 C 102.79383,117.15682 86.566683,133.38936 86.573334,153.40886 C 86.566683,173.42836 102.79383,189.66090 122.81334,189.66090 C 142.83284,189.66090 159.05999,173.42836 159.05334,153.40886 L 159.05334,153.40886 z "
         transform="matrix(1.027778,0.000000,0.000000,1.027778,331.8085,139.6920)"
         style="fill-rule:evenodd;stroke-width:3.0000000pt;"
         id="path599" />
      <path
         d="M 159.05334,153.40886 C 159.05999,133.38936 142.83284,117.15682 122.81334,117.15682 C 102.79383,117.15682 86.566683,133.38936 86.573334,153.40886 C 86.566683,173.42836 102.79383,189.66090 122.81334,189.66090 C 142.83284,189.66090 159.05999,173.42836 159.05334,153.40886 L 159.05334,153.40886 z "
         transform="matrix(1.027778,0.000000,0.000000,1.027778,303.6218,173.9187)"
         style="fill-rule:evenodd;stroke-width:3.0000000pt;"
         id="path602" />
      <path
         d="M 159.05334,153.40886 C 159.05999,133.38936 142.83284,117.15682 122.81334,117.15682 C 102.79383,117.15682 86.566683,133.38936 86.573334,153.40886 C 86.566683,173.42836 102.79383,189.66090 122.81334,189.66090 C 142.83284,189.66090 159.05999,173.42836 159.05334,153.40886 L 159.05334,153.40886 z "
         transform="matrix(1.027778,0.000000,0.000000,1.027778,213.0218,97.41198)"
         style="fill-rule:evenodd;stroke-width:3.0000000pt;"
         id="path587" />
      <path
         d="M 159.05334,153.40886 C 159.05999,133.38936 142.83284,117.15682 122.81334,117.15682 C 102.79383,117.15682 86.566683,133.38936 86.573334,153.40886 C 86.566683,173.42836 102.79383,189.66090 122.81334,189.66090 C 142.83284,189.66090 159.05999,173.42836 159.05334,153.40886 L 159.05334,153.40886 z "
         transform="matrix(1.027778,0.000000,0.000000,1.027778,184.8351,19.89862)"
         style="fill-rule:evenodd;stroke-width:3.0000000pt;"
         id="path584" />
    </g>
  </g>
  <g
     style="fill:#ffffff;fill-opacity:1.0000000;"
     id="g816"
     transform="translate(-67.44666,-5.428818)"
     sodipodi:fill-cmyk="(0.0000000 0.0000000 0.0000000 0.0000000)">
    <path
       d="M 161.06665,161.96553 C 161.06665,145.56452 147.77100,132.26888 131.36999,132.26888 C 114.96899,132.26888 101.67334,145.56452 101.67334,161.96553 C 101.67334,178.36654 114.96899,191.66219 131.36999,191.66219 C 147.77100,191.66219 161.06665,178.36654 161.06665,161.96553 L 161.06665,161.96553 z "
       transform="translate(326.6634,135.3967)"
       style="fill-rule:evenodd;stroke-width:3.0000000pt;fill:#ffffff;fill-opacity:1.0000000;"
       id="path600" />
    <path
       d="M 161.06665,161.96553 C 161.06665,145.56452 147.77100,132.26888 131.36999,132.26888 C 114.96899,132.26888 101.67334,145.56452 101.67334,161.96553 C 101.67334,178.36654 114.96899,191.66219 131.36999,191.66219 C 147.77100,191.66219 161.06665,178.36654 161.06665,161.96553 L 161.06665,161.96553 z "
       transform="translate(176.6700,4.529964)"
       style="fill-rule:evenodd;stroke-width:3.0000000pt;fill:#ffffff;fill-opacity:1.0000000;"
       id="path582" />
    <path
       d="M 161.06665,161.96553 C 161.06665,145.56452 147.77100,132.26888 131.36999,132.26888 C 114.96899,132.26888 101.67334,145.56452 101.67334,161.96553 C 101.67334,178.36654 114.96899,191.66219 131.36999,191.66219 C 147.77100,191.66219 161.06665,178.36654 161.06665,161.96553 L 161.06665,161.96553 z "
       transform="translate(179.6900,15.60334)"
       style="fill-rule:evenodd;stroke-width:3.0000000pt;fill:#ffffff;fill-opacity:1.0000000;"
       id="path585" />
    <path
       d="M 161.06665,161.96553 C 161.06665,145.56452 147.77100,132.26888 131.36999,132.26888 C 114.96899,132.26888 101.67334,145.56452 101.67334,161.96553 C 101.67334,178.36654 114.96899,191.66219 131.36999,191.66219 C 147.77100,191.66219 161.06665,178.36654 161.06665,161.96553 L 161.06665,161.96553 z "
       transform="translate(342.7701,111.2367)"
       style="fill-rule:evenodd;stroke-width:3.0000000pt;fill:#ffffff;fill-opacity:1.0000000;"
       id="path597" />
    <path
       d="M 161.06665,161.96553 C 161.06665,145.56452 147.77100,132.26888 131.36999,132.26888 C 114.96899,132.26888 101.67334,145.56452 101.67334,161.96553 C 101.67334,178.36654 114.96899,191.66219 131.36999,191.66219 C 147.77100,191.66219 161.06665,178.36654 161.06665,161.96553 L 161.06665,161.96553 z "
       transform="translate(298.4767,169.6234)"
       style="fill-rule:evenodd;stroke-width:3.0000000pt;fill:#ffffff;fill-opacity:1.0000000;"
       id="path603" />
    <path
       d="M 161.06665,161.96553 C 161.06665,145.56452 147.77100,132.26888 131.36999,132.26888 C 114.96899,132.26888 101.67334,145.56452 101.67334,161.96553 C 101.67334,178.36654 114.96899,191.66219 131.36999,191.66219 C 147.77100,191.66219 161.06665,178.36654 161.06665,161.96553 L 161.06665,161.96553 z "
       transform="translate(300.4901,-30.70327)"
       style="fill-rule:evenodd;stroke-width:3.0000000pt;fill:#ffffff;fill-opacity:1.0000000;"
       id="path594" />
    <path
       d="M 161.06665,161.96553 C 161.06665,145.56452 147.77100,132.26888 131.36999,132.26888 C 114.96899,132.26888 101.67334,145.56452 101.67334,161.96553 C 101.67334,178.36654 114.96899,191.66219 131.36999,191.66219 C 147.77100,191.66219 161.06665,178.36654 161.06665,161.96553 L 161.06665,161.96553 z "
       transform="translate(292.4367,-56.87667)"
       style="fill-rule:evenodd;stroke-width:3.0000000pt;fill:#ffffff;fill-opacity:1.0000000;"
       id="path591" />
    <path
       d="M 161.06665,161.96553 C 161.06665,145.56452 147.77100,132.26888 131.36999,132.26888 C 114.96899,132.26888 101.67334,145.56452 101.67334,161.96553 C 101.67334,178.36654 114.96899,191.66219 131.36999,191.66219 C 147.77100,191.66219 161.06665,178.36654 161.06665,161.96553 L 161.06665,161.96553 z "
       transform="translate(207.8767,93.11671)"
       style="fill-rule:evenodd;stroke-width:3.0000000pt;fill:#ffffff;fill-opacity:1.0000000;"
       id="path588" />
    <path
       d="M 161.06665,161.96553 C 161.06665,145.56452 147.77100,132.26888 131.36999,132.26888 C 114.96899,132.26888 101.67334,145.56452 101.67334,161.96553 C 101.67334,178.36654 114.96899,191.66219 131.36999,191.66219 C 147.77100,191.66219 161.06665,178.36654 161.06665,161.96553 L 161.06665,161.96553 z "
       transform="translate(165.5967,-81.03658)"
       style="fill-rule:evenodd;stroke-width:3.0000000pt;fill:#ffffff;fill-opacity:1.0000000;"
       id="path573" />
    <path
       d="M 161.06665,161.96553 C 161.06665,145.56452 147.77100,132.26888 131.36999,132.26888 C 114.96899,132.26888 101.67334,145.56452 101.67334,161.96553 C 101.67334,178.36654 114.96899,191.66219 131.36999,191.66219 C 147.77100,191.66219 161.06665,178.36654 161.06665,161.96553 L 161.06665,161.96553 z "
       transform="translate(153.5167,-103.1833)"
       style="fill-rule:evenodd;stroke-width:3.0000000pt;fill:#ffffff;fill-opacity:1.0000000;"
       id="path570" />
    <path
       d="M 161.06665,161.96553 C 161.06665,145.56452 147.77100,132.26888 131.36999,132.26888 C 114.96899,132.26888 101.67334,145.56452 101.67334,161.96553 C 101.67334,178.36654 114.96899,191.66219 131.36999,191.66219 C 147.77100,191.66219 161.06665,178.36654 161.06665,161.96553 L 161.06665,161.96553 z "
       transform="translate(10.57005,103.1835)"
       style="fill-rule:evenodd;stroke-width:3.0000000pt;fill:#ffffff;fill-opacity:1.0000000;"
       id="path576" />
    <path
       d="M 161.06665,161.96553 C 161.06665,145.56452 147.77100,132.26888 131.36999,132.26888 C 114.96899,132.26888 101.67334,145.56452 101.67334,161.96553 C 101.67334,178.36654 114.96899,191.66219 131.36999,191.66219 C 147.77100,191.66219 161.06665,178.36654 161.06665,161.96553 L 161.06665,161.96553 z "
       transform="translate(3.523379,65.93668)"
       style="fill-rule:evenodd;stroke-width:3.0000000pt;fill:#ffffff;fill-opacity:1.0000000;"
       id="path579" />
    <path
       d="M 161.06665,161.96553 C 161.06665,145.56452 147.77100,132.26888 131.36999,132.26888 C 114.96899,132.26888 101.67334,145.56452 101.67334,161.96553 C 101.67334,178.36654 114.96899,191.66219 131.36999,191.66219 C 147.77100,191.66219 161.06665,178.36654 161.06665,161.96553 L 161.06665,161.96553 z "
       transform="translate(-2.516622,-5.536606)"
       style="fill-rule:evenodd;stroke-width:3.0000000pt;fill:#ffffff;fill-opacity:1.0000000;"
       id="path563" />
  </g>
<metadata>
<rdf:RDF xmlns="http://web.resource.org/cc/"
xmlns:dc="http://purl.org/dc/elements/1.1/"
xmlns:rdf="http://www.w3.org/1999/02/22-rdf-syntax-ns#">
<Work rdf:about="">
<dc:title>surf</dc:title>
<dc:date>2004</dc:date>
<dc:description>graphic art abstract colour nuclear svg eps pdf</dc:description>
<dc:creator><Agent>
<dc:title>Rhea Myers</dc:title>
</Agent></dc:creator>
<dc:rights><Agent>
<dc:title>Rhea Myers</dc:title>
</Agent></dc:rights>
<dc:type rdf:resource="http://purl.org/dc/dcmitype/StillImage" />
<dc:source rdf:resource="http://www.Rhea Myers.org/art/1968"/>
<license rdf:resource="http://creativecommons.org/licenses/by-sa/2.0/" />
</Work>
<License rdf:about="http://creativecommons.org/licenses/by-sa/2.0/">
<permits rdf:resource="http://web.resource.org/cc/Reproduction" />
<permits rdf:resource="http://web.resource.org/cc/Distribution" />
<requires rdf:resource="http://web.resource.org/cc/Notice" />
<requires rdf:resource="http://web.resource.org/cc/Attribution" />
<permits rdf:resource="http://web.resource.org/cc/DerivativeWorks" />
<requires rdf:resource="http://web.resource.org/cc/ShareAlike" />
</License>
</rdf:RDF>
</metadata>
</svg>


