<?xml version="1.0" encoding="UTF-8" standalone="no"?>
<!DOCTYPE svg PUBLIC "-//W3C//DTD SVG 20010904//EN"
"http://www.w3.org/TR/2001/REC-SVG-20010904/DTD/svg10.dtd">
<!-- Created with Inkscape (http://www.inkscape.org/) -->
<svg
   version="1.0"
   x="0.0000000"
   y="0.0000000"
   width="487.50000"
   height="502.00000pt"
   id="svg1"
   xmlns="http://www.w3.org/2000/svg"
   xmlns:sodipodi="http://sodipodi.sourceforge.net/DTD/sodipodi-0.dtd"
   xmlns:inkscape="http://www.inkscape.org/namespaces/inkscape"
   xmlns:xlink="http://www.w3.org/1999/xlink"
   sodipodi:version="0.32"
   inkscape:version="0.38.1"
   sodipodi:docname="which_way_the_wind_blows.svg"
   sodipodi:docbase="/Users/Rhea Myers/Documents/images/1968/final">
  <sodipodi:namedview
     id="base"
     pagecolor="#ffffff"
     bordercolor="#666666"
     borderopacity="1.0"
     inkscape:pageopacity="0.0"
     inkscape:pageshadow="2"
     inkscape:zoom="0.43415836"
     inkscape:cx="305.25953"
     inkscape:cy="417.84947"
     inkscape:window-width="640"
     inkscape:window-height="501"
     inkscape:window-x="20"
     inkscape:window-y="42" />
  <defs
     id="defs3" />
  <g
     transform="translate(-129.5610,-135.3193)"
     id="g880">
    <path
       d="M 141.68922,501.32169 C 150.42222,509.75569 201.38422,505.71269 307.83722,395.47669 C 414.29222,285.24169 502.04822,168.36669 481.97022,148.97669 L 481.94122,148.94969 C 461.86122,129.55969 348.11922,221.34269 241.66722,331.57769 C 135.21522,441.81169 132.95322,492.88369 141.68522,501.31569 L 141.68922,501.32169 z "
       style="fill:#cdcfd0;"
       id="path827" />
    <path
       d="M 138.89422,497.67769 C 142.24122,509.34769 188.39622,531.32669 335.70522,489.08769 C 483.01422,446.84769 617.45122,389.50869 609.75822,362.67669 L 609.74622,362.63869 C 602.05322,335.80669 457.65822,358.42269 310.35022,400.66269 C 163.04322,442.90269 135.54722,486.00169 138.89422,497.67069 L 138.89422,497.67769 z "
       style="fill:#cdcfd0;"
       id="path829" />
    <path
       d="M 139.81822,490.18769 C 133.38522,500.48369 147.93522,549.49169 277.89422,630.69969 C 407.85322,711.90769 540.41922,773.44669 555.21222,749.77469 L 555.23222,749.74169 C 570.02522,726.06869 456.59922,633.89669 326.64022,552.68869 C 196.68222,471.48169 146.25522,479.88769 139.82422,490.18269 L 139.81822,490.18769 z "
       style="fill:#cdcfd0;"
       id="path831" />
    <path
       d="M 418.31622,416.53669 C 410.47022,389.17869 283.52522,421.02469 241.96422,432.94169 C 170.41522,453.45869 136.53822,484.25169 140.31022,497.40569 C 144.08222,510.55869 189.12122,518.72269 260.67122,498.20669 C 302.23222,486.29069 426.76322,446.02669 418.91722,418.66769 L 418.31622,416.53669 z "
       style="fill:#567eb9;"
       id="path841" />
    <path
       d="M 343.10522,291.34069 C 322.63222,271.57069 228.61722,362.62369 198.58322,393.72469 C 146.87822,447.26669 132.93722,490.87169 142.78022,500.37769 C 152.62322,509.88369 195.71022,494.43469 247.41622,440.89169 C 277.45122,409.79069 365.16622,312.65669 344.69122,292.88569 L 343.10522,291.34069 z "
       style="fill:#567eb9;"
       id="path843" />
    <path
       d="M 387.08822,643.54569 C 402.16822,619.40869 293.56022,546.37869 256.89522,523.46769 C 193.77222,484.02469 148.22122,479.45369 140.96922,491.05869 C 133.71722,502.66369 157.78722,541.59569 220.91022,581.03969 C 257.57522,603.95169 370.82622,669.55669 385.90622,645.41869 L 387.08822,643.54569 z "
       style="fill:#567eb9;"
       id="path845" />
    <path
       d="M 318.61922,445.96069 C 315.30122,434.38669 269.66222,432.08969 214.42222,447.92969 C 159.18222,463.76869 139.10222,489.05269 141.32322,496.79869 C 143.88322,505.72469 173.97122,515.34869 229.21322,499.50769 C 284.45222,483.66969 321.93722,457.53469 318.61922,445.96069 z "
       style="fill:#ff850d;"
       id="path847" />
    <path
       d="M 271.47722,366.67169 C 262.81522,358.30769 222.14222,379.13669 182.22322,420.47469 C 142.30422,461.81169 137.55622,493.74869 143.35322,499.34669 C 150.03322,505.79569 180.90222,499.08669 220.82222,457.74669 C 260.74222,416.41169 280.13922,375.03469 271.47722,366.67169 z "
       style="fill:#ff850d;"
       id="path849" />
    <path
       d="M 298.51222,589.14469 C 304.89322,578.93269 276.06122,543.47969 227.32622,513.02769 C 178.59422,482.57569 146.36722,484.57169 142.09722,491.40469 C 137.17722,499.27969 150.15822,528.07969 198.89322,558.53169 C 247.62522,588.98569 292.13122,599.35569 298.51222,589.14469 z "
       style="fill:#ff850d;"
       id="path851" />
  </g>
<metadata>
<rdf:RDF xmlns="http://web.resource.org/cc/"
xmlns:dc="http://purl.org/dc/elements/1.1/"
xmlns:rdf="http://www.w3.org/1999/02/22-rdf-syntax-ns#">
<Work rdf:about="">
<dc:title>which way the wind blows</dc:title>
<dc:date>2004</dc:date>
<dc:description>graphic art abstract colour nuclear svg eps pdf</dc:description>
<dc:creator><Agent>
<dc:title>Rhea Myers</dc:title>
</Agent></dc:creator>
<dc:rights><Agent>
<dc:title>Rhea Myers</dc:title>
</Agent></dc:rights>
<dc:type rdf:resource="http://purl.org/dc/dcmitype/StillImage" />
<dc:source rdf:resource="http://www.Rhea Myers.org/art/1968"/>
<license rdf:resource="http://creativecommons.org/licenses/by-sa/2.0/" />
</Work>
<License rdf:about="http://creativecommons.org/licenses/by-sa/2.0/">
<permits rdf:resource="http://web.resource.org/cc/Reproduction" />
<permits rdf:resource="http://web.resource.org/cc/Distribution" />
<requires rdf:resource="http://web.resource.org/cc/Notice" />
<requires rdf:resource="http://web.resource.org/cc/Attribution" />
<permits rdf:resource="http://web.resource.org/cc/DerivativeWorks" />
<requires rdf:resource="http://web.resource.org/cc/ShareAlike" />
</License>
</rdf:RDF>
</metadata>
</svg>


